/* XPM */
static char *ground1712224050[] = {
/* columns rows colors chars-per-pixel */
"56 56 39 1 ",
"  c gray1",
". c #040404",
"X c #0B0B0B",
"o c gray6",
"O c #101010",
"+ c gray8",
"@ c #191919",
"# c #1D1D1D",
"$ c #202020",
"% c gray14",
"& c gray17",
"* c gray18",
"= c #313131",
"- c #343434",
"; c #3A3A3A",
": c #3F3F3F",
"> c #434343",
", c #444444",
"< c gray29",
"1 c #4E4E4E",
"2 c gray32",
"3 c gray34",
"4 c #5A5A5A",
"5 c #5D5D5D",
"6 c #626262",
"7 c #676767",
"8 c #686868",
"9 c gray43",
"0 c #727272",
"q c #747474",
"w c #797979",
"e c gray50",
"r c gray51",
"t c gray52",
"y c #888888",
"u c #8E8E8E",
"i c #939393",
"p c gray59",
"a c gray60",
/* pixels */
".   ...XXX.Ooo.X XOOoXO+OXo.#oXXXXO+@. XXOXo@X .XXXo  . ",
"..XXX .X XooXX.X.oOXXXO+OX+ OOOooO+XooXO.X.oO.XX...X  X.",
"..X...oX...XoXo@o@oXoO+o++OXo@++oO+Xo@#+o.XOOoo.. XoX..X",
".. X.XoXoXoX+O++oOX+##+o+@oOX@o@++OoO++.o.XoXXo.XXX.X...",
".oX.XX+ooXoo#XOOO@OX+#@Oo@ooO*%+@+O+@XXX@O+++oo...Xo.X. ",
"..XoXOOO@oO@@Xoo$o.o+$@#X#+oX@+ + O=$o+##+@+#+oo+oXOoo  ",
".X..XooO#Oo+XXOO%.O#OOX$o$%OX@&O&O@&@XO$O$O++OX+@Xo++.Xo",
" oooXoO@O+#Oo#@@O.#&@XX@O%$o+%=*+%*$#+#@@#o.+Oo#%O.Xo.oO",
".XO+Xo+OO@=+##o+@+#@oO$##@X%:-$$.;=$&%+&-#oO@#XO*XOO.+OX",
"o..X.OOO.+=@$#oO=+O@#;;%X.+,%o$%>$ .X$*@X@*&Oo.X%o+o oo.",
"OOOO+$+o%+OX*,:*#o+@#>*@:-*>$#-*<<%$;=o@%++#..o=oo$#OOO.",
".O#Oo#$+#X$#*&$$%*:&$,*X@>%-53$OX%&&,$X%o#%OO&&OXX@OX@OX",
"oO+X X$%1%O++#&-O+-Oo$,@&<o ->@@O.O&=&,$&XO$&@oO#@$@Xo.X",
"o.+@+OO@o$>,&+o@Xo:%O#12o+%&=1&X$%Xo#@&+O+$.o%-Ooo@$ooXX",
"oX#%$@++@%%#&-OO%;,>o +:>+;=o&+++2>#<=*=@ #&=+**Xo+$+oXO",
"+%&O.O%-,&oX@;*1-#O1#-;5>%><>&o#*>,$*&<%-@@o*$&%=&OoX +%",
"@@OoXo@&.:&$+%+$-++*=@1$o<:o%;-<1$1$O>-oO$-++<>o$O+XOX.+",
"OO.o@@@oo-$=&%;<oo1;#O3:%1-#$**;1%@<15+oOO&-56@+$*&OX.XX",
"+$o$&#O.;$%:--:<;+=12&=>$$%1:*=o;X*9#>,XoO,;o,<#+*%OX oX",
"=*+#&*$&oO-<-##=,-$X*32&XX#22-<&,*;;@@,5X+o:<-;*@-#XoX#@",
"+@++O$&<*;;*;>,,$$&O=->1O%:,:%*50-@+#oX5$-$52++##<,&%+o.",
"o.o##Oo;+=;O+$1<-++*,oX6>==>>$.=3*&-#=#82>66@.Oo.;-.X$:*",
"&+X@*#+&oO;=:,;o12:O%#@<6+#=>:o@:92><1;u&&@=2=.*O<2&%*@X",
"-&XX%:-&@+3<;:;=O:3@$+o=7O-$$<,66:+$&+::=:##:58:41=$*% o",
"O+@%=&+@;>#$@;&*+6>o&%>8>%*&%#3:%3&=o$3+#<184+>=o+$$O@%O",
"&@O@.o=;:#+O@*$2>;<1-:99*$@@-46OO3#O;&,12>6&O@+2;$*;&%$&",
"*$$&@@:*+;1:<%+o4O@=o*1#245721<-o62=:,6;Xo*2=XX=5;=##@O%",
"XX$:*%>*#@O:w,-*3%@+&>*$:;*::OO+-9,>X$,*$+o74;,,3#&&#+o$",
".OO*%+:4O>>#X:60=%$@=1+&$;:-6$&O1-.->-%=>#;>$>:<5Xo.X+=,",
"#%OO#X%83#%+O1#%&&-#;221-=*#q@@+;O@303,=<58q-X&%<-1::<:+",
"-#@X%#o>OX>*%41O@+#@>7426;oO7#@@+*,-@$5<+$@63&8,&3<&*;& ",
"+.#+%*@4$&&-%%w*%=18r3+%-q1=<##$$3;&%#.;4o#+&76$O1+o-%@+",
"o++&##o7&$@=3>q588;O%<##:131577eq0$-%%3&%#->%w<;-*&%-$o+",
"@$&+$<:9,O,3,#-2;7@#$->@-&O9<:%%:48<46$---%;<5+>&:>;1:#X",
"&O o>-#O4<5$#&;O@2-<-:8<*+5>O;+O.=>=1>$$41*##>=-,2&o#%::",
"=#=%%+%&3=@@=@*$5>&$+--=**1&:1*ooo7-.XX-*,>O%34$12&XoO#-",
"*$3*X==2*&#@-;=>9#oo@6,%:7>+@4343>86,::=$:$o63:--:=&#o X",
"+@@-*,;-$*#-&+:82446176$>=;+4p4;%;X=rrp8597:2@+&=>+#@+oo",
"O@X<=@=4.*%$.&7%o=<73294&+%:5+7$$=>%%>-,26q33@@#,6@OO#+O",
"oX%*X%$03++OO6,o,=$;*$&>4@<4;%0--##%$33#-#@%q,=<99%&%@o+",
"O-&.*$O-t582<5-%$$#>&;,%81<&:$q5-%$$=r;$$$O#32;#@1,oO&X+",
":@+@$$@&&@&70:6&&-,-%=&#*i,o@,qa3*=:%0-o+%;&#:>X#&<*+#+.",
"=oX@o$$*:oo=2+63.o1$&-$&@75<392*e6<%<t3#+$$-=%*;*&*&OX$&",
"$#+$+$@&2@O%3&372>2##%=:=<t09;*#,7q;ya5>#*o$;&#;+;;:2**-",
"&%%&*@*;=-o#82-**46qe373=18-<+ -+$885>=6,+O=**#**,-:,%&+",
"=++#$+,,*-#O,8+@+=@=<&=%26-%14o+;X*r%+$15*&:&X#4<=O%+O%.",
"-+O##*<:%o&O*0*-**%-;$$=<1%#$8&+%X*0$#%o=1>##&,:OoX&+@&#",
"*-#$%*%$-&%##;2<>$#--$%<;:%$&0,o#=>1,#%$,+$$+16#O#O@OX#-",
"O=;:-##$*@##-&$@:O@2+&<*#:$%@12&$*#;5O-%$$##%*<&##@@@OX+",
"o##&*#$%@$#%q2#.:&:7$,<+#&--*%&*;:+o6;%$&#%$@$;:#oXXo@+O",
"#O+ooXo+%25>o<4Oo%&-$=#+#%;==&:#*+X$13$$&@@oO=*;*%@OXO+o",
"XX#O$*-,%o-#+o>1$;#&&=@$+@#;,:4$@XX&o<*#+%$:>2;=@++@+OoX",
"Xo$+++O@#O&O+#O;4%X%$>=+$+O>;>:O@$@#X;1=*=@-;=%*%+#**%+O",
"oX@Xooo++.%.@o@$:%@$*%$#o#>=@,%X+#@$;*:-:<%oOO+@:$oo+$%=",
"oX@oOXoX.$@o#$OO#;:@*$O&O=:@+*&OXo+;<@O@X$&ooOOo$$%+XooO",
".X+o..o .%o+#+$$O=,$%&+@;;.@=o*&&&#&.+#+O&:#o+XOo%$OOOoo"
};
