/* XPM */
static char *_7018f7010684ae0b79c9173d1f0b2c90mjCHrvcQ8byuurj[] = {
/* columns rows colors chars-per-pixel */
"50 50 175 2 ",
"   c None",
".  c #F79013",
"X  c #F79014",
"o  c #F79015",
"O  c #F79115",
"+  c #F79116",
"@  c #F79117",
"#  c #F79217",
"$  c #F79218",
"%  c #F79219",
"&  c #F79319",
"*  c #F7931A",
"=  c #F7931B",
"-  c #F7941B",
";  c #F7941C",
":  c #F7941D",
">  c #F7951D",
",  c #F7951E",
"<  c #F7951F",
"1  c #F7961F",
"2  c #F79620",
"3  c #F79621",
"4  c #F79721",
"5  c #F79723",
"6  c #F79724",
"7  c #F79824",
"8  c #F79825",
"9  c #F79926",
"0  c #F79927",
"q  c #F79928",
"w  c #F79A28",
"e  c #F89A29",
"r  c #F89B2B",
"t  c #F89B2C",
"y  c #F89C2D",
"u  c #F89C2E",
"i  c #F89D2E",
"p  c #F89D2F",
"a  c #F89D30",
"s  c #F89E30",
"d  c #F89E32",
"f  c #F89F33",
"g  c #F89F34",
"h  c #F8A035",
"j  c #F8A036",
"k  c #F8A138",
"l  c #F8A23B",
"z  c #F8A33B",
"x  c #F8A43D",
"c  c #F8A540",
"v  c #F8A541",
"b  c #F8A641",
"n  c #F8A642",
"m  c #F8A643",
"M  c #F8A745",
"N  c #F9A847",
"B  c #F9A948",
"V  c #F9A949",
"C  c #F9AA4A",
"Z  c #F9AA4C",
"A  c #F9AC50",
"S  c #F9AD51",
"D  c #F9AD52",
"F  c #F9AE53",
"G  c #F9AF56",
"H  c #F9B057",
"J  c #F9B058",
"K  c #F9B159",
"L  c #F9B15A",
"P  c #F9B25C",
"I  c #F9B35E",
"U  c #F9B35F",
"Y  c #FAB562",
"T  c #FAB563",
"R  c #FAB664",
"E  c #FAB765",
"W  c #FAB766",
"Q  c #FAB869",
"!  c #FAB96A",
"~  c #FAB96B",
"^  c #FABA6C",
"/  c #FABB6F",
"(  c #FABC70",
")  c #FABD72",
"_  c #FABE76",
"`  c #FABF78",
"'  c #FAC07A",
"]  c #FAC17C",
"[  c #FAC27D",
"{  c #FAC27E",
"}  c #FBC380",
"|  c #FBC381",
" . c #FBC481",
".. c #FBC585",
"X. c #FBC686",
"o. c #FBC788",
"O. c #FBC88A",
"+. c #FBC88B",
"@. c #FBC98D",
"#. c #FBCA8E",
"$. c #FBCD96",
"%. c #FBCE96",
"&. c #FBCE97",
"*. c #FCD19E",
"=. c #FCD2A0",
"-. c #FCD3A2",
";. c #FCD9AE",
":. c #FCD9AF",
">. c #FCDAB0",
",. c #FCDAB1",
"<. c #FCDBB2",
"1. c #FCDBB3",
"2. c #FCDCB4",
"3. c #FCDCB5",
"4. c #FCDDB6",
"5. c #FDDEB8",
"6. c #FDDEBA",
"7. c #FDDFBC",
"8. c #FDE0BD",
"9. c #FDE1BF",
"0. c #FDE2C1",
"q. c #FDE2C2",
"w. c #FDE3C4",
"e. c #FDE3C5",
"r. c #FDE4C5",
"t. c #FDE5C7",
"y. c #FDE5C8",
"u. c #FDE6C9",
"i. c #FDE6CB",
"p. c #FDE7CD",
"a. c #FDE8CD",
"s. c #FDE8CE",
"d. c #FDE8CF",
"f. c #FDE9D1",
"g. c #FDEAD1",
"h. c #FEEBD5",
"j. c #FEECD7",
"k. c #FEEDD8",
"l. c #FEEDD9",
"z. c #FEEDDA",
"x. c #FEEEDA",
"c. c #FEEEDB",
"v. c #FEEEDC",
"b. c #FEEFDD",
"n. c #FEF0DE",
"m. c #FEF0DF",
"M. c #FEF1E0",
"N. c #FEF1E1",
"B. c #FEF1E2",
"V. c #FEF2E3",
"C. c #FEF2E4",
"Z. c #FEF3E5",
"A. c #FEF4E8",
"S. c #FEF5EA",
"D. c #FEF6EB",
"F. c #FEF6EC",
"G. c #FEF6ED",
"H. c #FEF7EE",
"J. c #FEF7EF",
"K. c #FEF8F1",
"L. c #FFF8F1",
"P. c #FFF9F3",
"I. c #FFFAF4",
"U. c #FFFAF5",
"Y. c #FFFBF6",
"T. c #FFFBF7",
"R. c #FFFCF9",
"E. c #FFFCFA",
"W. c #FFFDFA",
"Q. c #FFFDFB",
"!. c #FFFDFC",
"~. c #FFFEFD",
"^. c #FFFEFE",
"/. c #FFFFFE",
"(. c white",
/* pixels */
"                                        * * * * * * * * * *                                         ",
"                                  * * * * * * * * * * * * * * * *                                   ",
"                            * * * * * * * * * * * * * * * * * * * * * *                             ",
"                        * * * * * * * * * * * * * * * * * * * * * * * * * *                         ",
"                      * * * * * * * * * * * * * * * * * * * * * * * * * * * *                       ",
"                  * * * * * * * * * * * * * * * * * * * * * * * * * * * * * * * *                   ",
"                * * * * * * * * * * * * * * * * * * * * * * * * * * * * * * * * * *                 ",
"              * * * * * * * * * * * * * * * * * # * * * * * * * * * * * * * * * * * *               ",
"            * * * * * * * * * * * * * * * * * 0 M y : * * * * * * * * * * * * * * * * *             ",
"          * * * * * * * * * * * * * * * * * # J D.l.` * 2 r : # * * * * * * * * * * * * *           ",
"          * * * * * * * * * * * * # # * * * # X.(.(. .. G f.;.J * * * * * * * * * * * * *           ",
"        * * * * * * * * * * * * * d r * # # > 6.(.I.S # o.(.(.{ # * * * * * * * * * * * * *         ",
"      * * * * * * * * * * * * * q 0.f.-./ n n N.(.l.y > 6.(.I.S # * * * * * * * * * * * * * *       ",
"      * * * * * * * * * * * * # M F.(.(.(.F.l.W.(.r.j l N.(.l.y * * * * * * * * * * * * * * *       ",
"    * * * * * * * * * * * * * # H m.W.(.(.(.(.(.(.W.m.s.W.(.<.* * * * * * * * * * * * * * * * *     ",
"    * * * * * * * * * * * * * * > j I 0.(.(.(.(.(.(.(.(.(.(.N.+.x * * * * * * * * * * * * * * *     ",
"    * * * * * * * * * * * * * * * * . G I.(.(.(.W.T.(.(.(.(.(.(.Z.o.r # * * * * * * * * * * * *     ",
"  * * * * * * * * * * * * * * * * * # E (.(.(.(.e.J } 6.F.(.(.(.(.(.;.u * * * * * * * * * * * * *   ",
"  * * * * * * * * * * * * * * * * * # $.(.(.(.(.@.. # : M <.W.(.(.(.(.@.* * * * * * * * * * * * *   ",
"  * * * * * * * * * * * * * * * * * 6 e.(.(.(.W.I # * * @ 6 2.(.(.(.(.h.u * * * * * * * * * * * *   ",
"* * * * * * * * * * * * * * * * * * x A.(.(.(.N.j * * * @ + / (.(.(.(.D.x * * * * * * * * * * * * * ",
"* * * * * * * * * * * * * * * * * # T (.(.(.(.7.: # * * - + X.(.(.(.(.N.g # * * * * * * * * * * * * ",
"* * * * * * * * * * * * * * * * * * $.(.(.(.(.0.G j 0 > 0 G v.(.(.(.(.7.2 * * * * * * * * * * * * * ",
"* * * * * * * * * * * * * * * * # 2 r.(.(.(.(.(.I.N.y.7.y.F.(.(.(.(.I.Q # * * * * * * * * * * * * * ",
"* * * * * * * * * * * * * * * * * x A.(.(.(.(.(.(.(.(.(.(.(.(.(.(.D.X.> * * * * * * * * * * * * * * ",
"* * * * * * * * * * * * * * * * X E W.(.(.(.p.X.<.v.T.(.(.(.(.(.Z.T * # * * * * * * * * * * * * * * ",
"* * * * * * * * * * * * * * * * * $.(.(.(.(.@.. > d T <.P.(.(.(.(.p.V * * * * * * * * * * * * * * * ",
"* * * * * * * * * * * * * * * * 2 e.(.(.(.W.I # * * # > ! D.(.(.(.(.r.u * * * * * * * * * * * * * * ",
"* * * * * * * * * * * * * * X # x Z.(.(.(.N.l * * * * * # } (.(.(.(.W.E # * * * * * * * * * * * * * ",
"* * * * * * * * * * * * * ! ` Z @.(.(.(.(.9.2 * * * * * # Z I.(.(.(.(.X.# * * * * * * * * * * * * * ",
"  * * * * * * * * * * # g v.(.I.T.(.(.(.(.@.. # * * * * X ) (.(.(.(.(.{ # * * * * * * * * * * * *   ",
"  * * * * * * * * * * # { (.(.(.(.(.(.(.(.9.) N d 2 2 q J l.(.(.(.(.I.J X * * * * * * * * * * * *   ",
"  * * * * * * * * * * - ' s.D.(.(.(.(.(.(.(.(.J.l.r.0.f.P.(.(.(.(.(.p.u * * * * * * * * * * * * *   ",
"    * * * * * * * * * * * 0 n ! =.l.(.(.(.(.(.(.(.(.(.(.(.(.(.(.(.W._ # * * * * * * * * * * * *     ",
"    * * * * * * * * * * * * # # # o.(.(.f.h.I.(.(.(.(.(.(.(.(.(.(.=.2 * * * * * * * * * * * * *     ",
"    * * * * * * * * * * * * * * > 4.(.I.G q =.(.(.N.N.P.T.I.F.p._ 6 * * * * * * * * * * * * * *     ",
"      * * * * * * * * * * * * # d m.(.v.y > 4.(.I.I g V S S c 6 # * * * * * * * * * * * * * *       ",
"      * * * * * * * * * * * * # J I.(.<.> j v.(.l.y # # X * * * * * * * * * * * * * * * * * *       ",
"        * * * * * * * * * * * # V <.l.{ # H T.(.1.: * * * * * * * * * * * * * * * * * * * *         ",
"          * * * * * * * * * * * * > d 0 # T v.I. .# * * * * * * * * * * * * * * * * * * *           ",
"          * * * * * * * * * * * * * * * * > u S d * * * * * * * * * * * * * * * * * * * *           ",
"            * * * * * * * * * * * * * * * * * # * * * * * * * * * * * * * * * * * * * *             ",
"              * * * * * * * * * * * * * * * * * * * * * * * * * * * * * * * * * * * *               ",
"                * * * * * * * * * * * * * * * * * * * * * * * * * * * * * * * * * *                 ",
"                  * * * * * * * * * * * * * * * * * * * * * * * * * * * * * * * *                   ",
"                      * * * * * * * * * * * * * * * * * * * * * * * * * * * *                       ",
"                        * * * * * * * * * * * * * * * * * * * * * * * * * *                         ",
"                            * * * * * * * * * * * * * * * * * * * * * *                             ",
"                                  * * * * * * * * * * * * * * * *                                   ",
"                                        * * * * * * * * * *                                         "
};
