/* XPM */
static char *result[] = {
/* columns rows colors chars-per-pixel */
"56 56 2 1 ",
"  c black",
". c #5B6EE1",
/* pixels */
"                ........................                ",
"                ........................                ",
"                ........................                ",
"                ........................                ",
"        ........................................        ",
"        ........................................        ",
"        ........................................        ",
"        ........................................        ",
"    ................                ................    ",
"    ................                ................    ",
"    ................                ................    ",
"    ................                ................    ",
"............                                ............",
"............                                ............",
"............                                ............",
"............                                ............",
"........                                        ........",
"........                                        ........",
"........                                        ........",
"........                                        ........",
"........                                        ........",
"........                                        ........",
"........                                        ........",
"........                                        ........",
"........                                        ........",
"........                                        ........",
"........                                        ........",
"........                                        ........",
"........                                        ........",
"........                                        ........",
"........                                        ........",
"........                                        ........",
"........                                        ........",
"........                                        ........",
"........                                        ........",
"........                                        ........",
"........                                        ........",
"........                                        ........",
"........                                        ........",
"........                                        ........",
"........                                        ........",
"........                                        ........",
"........                                        ........",
"........                                        ........",
"........                                        ........",
"........                                        ........",
"........                                        ........",
"........                                        ........",
"........                                        ........",
"........                                        ........",
"........                                        ........",
"........                                        ........",
"........                                        ........",
"........                                        ........",
"........                                        ........",
"........                                        ........"
};
