/* XPM */
static char *ee4b1bf7bbd044f38a1914e3f670df10K7XfDj4LGO58bsDF[] = {
/* columns rows colors chars-per-pixel */
"56 56 252 2 ",
"   c #040403",
".  c #0A0504",
"X  c #040A04",
"o  c #0A0A06",
"O  c #050509",
"+  c #0A0709",
"@  c #040A0C",
"#  c #0C0B0B",
"$  c #120C0D",
"%  c #13080A",
"&  c #0B110D",
"*  c #07100F",
"=  c #13120E",
"-  c #020E13",
";  c #0C0D12",
":  c #020E19",
">  c #140D12",
",  c #190F15",
"<  c #031214",
"1  c #0D1213",
"2  c #03141C",
"3  c #0C151A",
"4  c #0C1A1D",
"5  c #051A1B",
"6  c #131413",
"7  c #1A1413",
"8  c #1A1914",
"9  c #13151A",
"0  c #141A1C",
"q  c #1B1B1B",
"w  c #191618",
"e  c #221B1D",
"r  c #17211C",
"t  c #0D221D",
"y  c #21221D",
"u  c #021A24",
"i  c #0A1A23",
"p  c #1B1C22",
"a  c #141C24",
"s  c #221E23",
"d  c #08242B",
"f  c #132224",
"g  c #1C2224",
"h  c #18262B",
"j  c #062A33",
"k  c #172C35",
"l  c #18353C",
"z  c #143134",
"x  c #252424",
"c  c #252924",
"v  c #2C2B2C",
"b  c #282729",
"n  c #35322E",
"m  c #262D36",
"M  c #382D33",
"N  c #273539",
"B  c #373736",
"V  c #2D2F2C",
"C  c #3D4037",
"Z  c #41433E",
"A  c #1A3A45",
"S  c #0E3B5C",
"D  c #293A44",
"F  c #363C48",
"G  c #263E54",
"H  c #073D7D",
"J  c #413E45",
"K  c #1B4659",
"L  c #19424B",
"P  c #2B454E",
"I  c #26414A",
"U  c #37444A",
"Y  c #2A4757",
"T  c #344959",
"R  c #32545C",
"E  c #064868",
"W  c #194865",
"Q  c #0A4A77",
"!  c #0A5678",
"~  c #19577A",
"^  c #144F73",
"/  c #334C63",
"(  c #2A576B",
")  c #385767",
"_  c #265C78",
"`  c #2D566B",
"'  c #15607D",
"]  c #29657B",
"[  c #3A667A",
"{  c #3A626B",
"}  c #48484B",
"|  c #4D5458",
" . c #435C6B",
".. c #44626B",
"X. c #456A78",
"o. c #48717C",
"O. c #526E79",
"+. c #0E4983",
"@. c #124D86",
"#. c #085989",
"$. c #145B8C",
"%. c #165886",
"&. c #075D95",
"*. c #195B95",
"=. c #194E92",
"-. c #255B82",
";. c #215F95",
":. c #08668A",
">. c #17688B",
",. c #0B6695",
"<. c #186897",
"1. c #087398",
"2. c #18769A",
"3. c #16728B",
"4. c #276789",
"5. c #366A89",
"6. c #397688",
"7. c #2B6B9B",
"8. c #236797",
"9. c #366C94",
"0. c #24759A",
"q. c #2B739C",
"w. c #277897",
"e. c #3B7D9D",
"r. c #387696",
"t. c #27758E",
"y. c #235DA2",
"u. c #1C6BA4",
"i. c #1A76A4",
"p. c #0F6FA7",
"a. c #286AA6",
"s. c #2978A7",
"d. c #337CA3",
"f. c #337DAB",
"g. c #3475A7",
"h. c #276DB3",
"j. c #2B73B2",
"k. c #2A78B7",
"l. c #347BB5",
"z. c #347CBB",
"x. c #3579B8",
"c. c #326FAC",
"v. c #446C85",
"b. c #4A7887",
"n. c #477A95",
"m. c #567E96",
"M. c #527B8B",
"N. c #417DB2",
"B. c #367DC2",
"V. c #2B78C0",
"C. c #3A859C",
"Z. c #28819D",
"A. c #168AAB",
"S. c #2A85A7",
"D. c #3888A8",
"F. c #2792AD",
"G. c #3993AA",
"H. c #2B89B3",
"J. c #3C8CB2",
"K. c #3887B9",
"L. c #3997B8",
"P. c #2F98B8",
"I. c #3BA4BA",
"U. c #19839D",
"Y. c #498398",
"T. c #588899",
"R. c #4F8A96",
"E. c #62889D",
"W. c #698B98",
"Q. c #478AA8",
"!. c #578CA4",
"~. c #4995AB",
"^. c #5896AA",
"/. c #438BB5",
"(. c #4B94BB",
"). c #449BBD",
"_. c #4897B5",
"`. c #559CB7",
"'. c #629AAA",
"]. c #6D9BB2",
"[. c #48A5BB",
"{. c #57A2BB",
"}. c #59A5B2",
"|. c #68A7BB",
" X c #71ADBA",
".X c #3885C2",
"XX c #3D97C2",
"oX c #2A8BC2",
"OX c #3BA5C6",
"+X c #2FA5CD",
"@X c #458BC6",
"#X c #4798C5",
"$X c #539DC3",
"%X c #569BC8",
"&X c #579ED2",
"*X c #4CACCA",
"=X c #4BA5C6",
"-X c #53A3C4",
";X c #52A4CC",
":X c #5AA5CB",
">X c #54ACCD",
",X c #5CABCB",
"<X c #59A7C5",
"1X c #59B3CC",
"2X c #4DA6D5",
"3X c #5DABD3",
"4X c #55A8D5",
"5X c #4AB8D5",
"6X c #5BB5D3",
"7X c #58B9D8",
"8X c #47B2CC",
"9X c #62A9C7",
"0X c #67B5C8",
"qX c #77BCC9",
"wX c #63ABD5",
"eX c #67B8D8",
"rX c #71BAD3",
"tX c #5AB8E6",
"yX c #51B3E3",
"uX c #68B8E4",
"iX c #74BDE7",
"pX c #60ADE3",
"aX c #5AC4D9",
"sX c #69C4DA",
"dX c #77C7D9",
"fX c #7DD0DE",
"gX c #5ACAE6",
"hX c #51CBF2",
"jX c #69C8E7",
"kX c #77C8E7",
"lX c #69D3E9",
"zX c #79D6EA",
"xX c #79C9F4",
"cX c #6DD9F7",
"vX c #78D6F7",
"bX c #6AC9F1",
"nX c #7AE4FB",
"mX c #75E2F7",
"MX c #80ABBB",
"NX c #83BCD0",
"BX c #83C9D7",
"VX c #82CCE8",
"CX c #84D7E9",
"ZX c #84CDF8",
"AX c #86D7F7",
"SX c #93DBF8",
"DX c #88E5F9",
"FX c #94EBFD",
"GX c #97E6FD",
"HX c #9BF2FE",
"JX c #89E7F5",
"KX c #A2F3FF",
/* pixels */
"O O O   X X X X o o   = o = o     . 7 # 6 # 6 1 ; O 6   w 6 X   X = = > 7 % . % % # % 7 = .   o + + # +     O O ",
"O + + + X X X o     o = = # + o o = = o X @ - 3 3 @ 1   0 1 @ 1 & 6 # + > $ + # +     o $ o . o     # #     +   ",
"O + +     o o o .   o   6   1 0 # 6 @ < < f 4 f i 4 a @ 4 4 4 4 < 3 1 ; 9 q 0 9 X X o 6 6 $ o     . # +   O +   ",
"  + +     # $ # $ . $ O p @ 3 4 < 4 < 2 d l l z l P R P T T P z d k k i 2 4 2 - 3 @ 1 @ +   #   .   + +   O +   ",
"  + .   + > , $ > + 9 9 h - 2 2 u l A A ) X.o.[ X.o.b.o.b.b.b.X.X.o.X.R A A j 2 d 5 5 < 4 1 6 . # + # # + + +   ",
"X o . . % , , > q ; : 2 2 u z L Y b.T.M.^.^.'.^.^.Y.b.R.R.Y.^.^.^.'.'.'.!.T.[ K L z j 2 h 3 1 # 6 # # 6 > # +   ",
"  X . + % $ , 9 p i 2 z j ( b.R.^.qX0X^.}.~.~.~.Q.C.C.{.`.D.G.C.~.~.`.}.}.|.|.^.R.v.( j j - - p q # # 6 = # # # ",
"X X # $ $ # 9 a i u j o.6.qXdXdXVXkX{.D.G.[.[.sXdXsXsXkXsX7X7X=X-X_.G.Z.w._.sXVXdXBX X6.{ d 2 h b #   # # . $ 8 ",
"X X 6 # # 9 3 u u K b.}.0XzXJXdXeXjXsXjXlXzXjXjX6X*X*XaXjX5X8X8XjXbXcXgXOXF.G.1XCXJXdX|.!.( 2 2 m + # 6   6 8   ",
"&       # 3 2 u A ] dXCXmXJXlXI.=XvXFXvX8XP.U.U.F.F.5XnXnX8XA.F.2.F.OXhXmXnX7XG.eXzXJXJXBX'.Y : h 1 0 6   # # . ",
"o & 6 1 3 i j A 6.Q.CXzXzXlXaX5XcXjXOXF.2.2.A.8XcXcXlXcXlX5XgXgX5XA.:.:.A.5XcXDX7XaXaXzXJXdX!.Y i - g 9 # 6 o o ",
"  6 q ; : k Y [ qXsXnXlXaXjXmXDX7XH.:.1.F.P.I.7XvXlXOX*XOXF.gXcXyX+X+XA.1.A.OXbXFXcXI.I.zXCXBXT.k - a 0 ; 0 # o ",
"$ # ;   - A X.'.dXzXsXaX5XlXvX=Xi.1.1.H.bXvX7XH.L.*XL.L.L.L.5X8XXX5XcXhXA.1.p.H.7XvXcX5X[.1XCX XO.f a 0 @ 1 &   ",
"= + 9 0 i I T.NXdXnXI.aXDXvX).<.,.<.2.H.tXjX#X2.S.=X>XS.D.7X7XL.S.H.yXhX+Xp.,.i.i.P.gXlXI.[.CXNXW.D f f 1 & &   ",
"# # x g i Y T.qXdXlXI.jXFX3X%.8.<.K.tXbXjXJ.2.0.-X<X<XwXwX,X1X>Xi.,.A.hXhX+Xi.u.<.2.OXcX5XI.<XNX]...k f 0 @ 1 1 ",
"e q v a u {  XqXdX[.sXFXkXf.$.*.$.f.uXZXxXg.%.4.$XeX$XAXAX;XeX;X<.#.i.yXcXtXk.&.&.,.1.8XcX*Xw.|.MXW.l 2 < X 1 c ",
"w > w @ k o. X0X<X_.DXSX$X8.%.@.%.@.c.N.a.*.%.^ (.<X:XZXxX2X2X#X#.&.&.,.oXk.p.,.#.,.,.i.vXjX3.G. XT.A - 2 *   7 ",
", w   3 A b.|.0X_.<XKXVXw.%.$.+.Q Q +.=.=.H Q %.%.t.t.f.S.s.H.,.$.$.u.p.&.&.,.#.&.&.&.H.bXjXS.w.~.R.R 5 @ X   $ ",
", x X m ..T.'.`.<X,XCXfX~.q.%.+.Q @.+.Q @.@.Q ~ %.Q ! >.>.#.,.#.*.$.u.<.&.p.k.p.#.,.K.uXjX7X[.G.Q.T.X.l < @ + # ",
"M v r N O.T. X{.eXkXCXfX<X(./.wXwX%X9Xg.Q %.$.$.Q ! w.S.0.H.K.i.<.$.u.K.yXtXtX2XXXXX#XbXvXjXaX1X}.T.o.P f 9 w 8 ",
"q # 6 f R T.'.~._.kXJX0X~.eXVXiX$X(.9XwXD.%.*.*.<.S.eXzXzXvXtXK.$.#.l.uXvX7XXXP.2X4Xs.#XvXvX=XG.}.!.b.Y h 0 6   ",
".   X f I T.R.t.d.,XCX}.w.dXSX/.0.t.4.kXZXq.g.K.&X#X,XkXkXjX4XXX$.$.3XHXvXH.,.:.J.eXS.s.6X6X3.! Y.n.` d : h B B ",
"v y X t Y T.!.r.d.-XCX0XC.{.kX/.>.4.t.VXAXd.<.<.<.f.).-X6XeX#X<.#.$.2XAXjX2.:.:.*XkXJ.S.>X>X%.! 5.!.v.A k b w $ ",
"n v X 5 ..m.!.r.>.(.kXdX0X`.{.~.w.w.<XeX_.d.d.K.$.$.$.<.0.0.2.>.S.S.#X7XjXG.2.Z.1XjX-X,XwX$X! ~ r.!.[ A N h # # ",
"7 7 8 m O.E.'.r.%.d.0XdX`.D.~.`.rXVXVX:XD.:XeXiX#X<.#.#.$.>.0.-XjXbX5X*XcXaX*XL.).).w._.:XQ.Q ^ n.n.M.Y u p x $ ",
"b 8 8 m O.E.].9.^ q.9X|.t.~.wXCXCXSXZXwXd.kXwXwXZX/.$.#.#.s.eXjXI.jXvXlXDXvX1X*X*X6XZ.e.Q.N.E E r.n.M./ N m x e ",
"M q c F O.m.].n.%.7.9X0X`.SXkX,XdX`.t.iX(.,X/.D.eX;Xs.u.<.K.kX6XL.I.7XDXlXP.L.G.>XzX,X/.Q.9.S W 6.n.v.Y k 9 6 v ",
"# o r U  .v.T.!.e.%.~.dXSXGXiX:X<Xt.! wX0.! >._.kXAX2Xs.s.;XAXvXP.2.L.nX>X! S.).=XvXAXVX9Xn.W 4.n.5.) I N 0 + 8 ",
"  6 0 N ) m.!.|.%X:XsXfXFXvXeX;X/.>.D.S.3._._.eXeXeXXX<.<.J.>XsX7XS.L.>X>XL.>.L.L.6XxXAXrX^.5.n.n.n.b.I a 9 n } ",
"p g * < T E.n.r.`.,X0XzXeXs.,.XXK.#.>.>.1XDXAXjX>Xs.2.2.:.<.S.L.eX6XvXuXD.<.:.#XXXS.G.).`.^.5.] 5.b.b.P U } B = ",
"N h t 5 ..E.Y.] %.J.sXsXL.#.,.4XXXs.:.w.1X1XeXjXDX4X#X*XL.XXjXvX6X-XeXkXS.<.K.2X2X1.:.S.{.Q.^ E ] b.b.l D B x . ",
"9   r h O.T.R.] ! ! <XdXeX<.,.2XK.2X).G.G.D.2.).jXvXjXDXDXjXxXxX#XS.J.:X$X4X$X;X7X2.2.-XdXQ.E W 6.R.o.l B g 6 8 ",
"o w & N O.E.Y.4.E ! D.eXzXL.,.=X*X=X6XL.0.>.>.S.1XzXJXHXFXJXCXeXS.#.0.J.wXkX9XeXsX>.,XAXeX~.E ^ Y.T.X.D B r = 8 ",
"8 q c f ..M.!.e.~ E D.sXzX*Xs.L.[.[.eX#X<.,.s.L.sXFXFXFXHXHXHXzXJ.s.<.#.3XSX<XdX`.~.0XeXkX(.E ~ Q.T.O.U } B r   ",
"c =   4 R M.].Q.e.t.~.dXAXjXS.:.L.1XAX7X#XK.H.H.3XvXDXHXKXHXGXeXL.s.#X%XZXKX<X{.C._.wXeX-XD.%.D.^.Y.Y 4 p v B C ",
"M e c k A X.!.Q.Q.`.rXkXFXAXJ.0.6XAXAXuXxXpXl.H.K.4XkXGXHXAXuX#XK.#XxXiXxXGXiX,Xt._.-X6XkXeX(.`.Q.v.I 2 # o y B ",
"M q | k z { 5.9.Q.Q.{.dXGXFX=X).kXkX-XD.2X@Xh.j.j.K.;XuXuX2X.Xk.K.K.pX#X<.wXGXkX-XeXAXCXwX,X%X7.6.[ Y k g # X   ",
"e $ g N I ) n._ -.t.rXGXrX{.S.J.wXD.0.8.l.j.j.h.j.l.K.K.K..Xk.h.j..Xl.a.$.q.:XkXD.D.G.J.3Xd.%.Q _ ` I i 0 8 = o ",
"> q X | I ` n.5.4.4.9XCX0X{.2.<./.t.q.K..Xx.B.k.z.K.K.z.z.B.V.k.B.x.j.j.<.%.d.wXd.w.-XwXwX%.Q E _ [ Y 2 9 6 = = ",
"$ $ x m k X.n.4.5.r.Q.9XdXGX-XJ./.q.s.l.@Xk.x.B..Xj.j.k.z.k.h.k.h.z.B.a.8.8.7.(.d.D.iX<X:X%.%.^ 4.[ T h v q # = ",
", M v @ P { v.9.r.e.Q.`.0XGX(./.(.4.K.K.@XB.x.k.z.x.K.l.z.j.k.h.h.c.c.a.c.c.g.%Xf./.kX$X%Xq.8.4.5.M.) i 9 x o = ",
"M s ; 3 D [ n.9.5.9.r.^.|.SXD.D.(.q.K.x.@Xz.x.B.z.l.@X#X#Xl.h.a.j.a.*.a.N.g.g.wXf.(.xX%X:Xg.7.9.9.v. .m p q =   ",
"M 6   f l X.n.9.-.4.4.~.`.VXq.d./.8.g.a.j.x.z.x.x.#XxXAXZX&Xz.c.*.y.y.a.c.7.a.:Xf.(.iX$X%X7.7.9.5.[ ) N a   y V ",
"e s 6 h l X.v.9.-.-._ ^.`.VXq.d.wXq.s.f.j.j.x.a.j.wXSXGXZX&X/.a.a.a.a.a.c.c.l.%Xs./.eX/.(.7.8.4.5.[ Y D | x v B ",
"x v x h D X.v.5.-._ ~ ^.`.iXq.D.ZX).J.K.K.j.j.x.z.&XiXwX#Xg.7.8.y.*.c.c.*.g.&X3X0.J.3X#X%Xg.8.%._ [ T D | x x = ",
"M = 6 f D X.m.-.-.~ ~ Q.`.rXg./.AXGXiXK.K.K.j.z.l.a.a.7.8.@.@.=.@.<.c.a.*.@XiX#X<.S.;X;X3Xf.8.%._ 5.) D 3 + c o ",
"n = & 4 l { m.5.-.~ ~ n.`.9Xg./.kXHXAX;XK.l.j.a.a.%.%.%.;.+.@.=.a.a.a.j.@XuXpX2.:.s.#X;X4Xs.$.Q 4.[ ) D 3 0 V 6 ",
"v M x f D ..b.n._ ~ _ r.^.$Xd./.-X_.-XeXJ.a.s.g.g.7.7.7.a.;.8.8.<.<.s.&X3XJ.0.>.:.0.J.).).>.! ^ ^ ` Y k 3 # q B ",
"+ B F F U ..M.T.T.Y.R.^.|.{.Q.4.' ! :.S.J.d.D.$X$X:X(././././.J.D.0.d.-Xq.w.>.:.' w.`.{._.D.4.r.{ ) P h 4 3 # 6 ",
"w s s b F R ..O.X.M.b.Y.Y.!.n._ E E E >.e.C.Q.Y.Y.r.r.~ ~ 4.4.r.d.q.e.4.~ ~ ~ E ] Y.^.Y.r.6.] _ ) T I f 3 3 1 1 ",
"q > 9 9 m U P R Y { ) ) [ b.v.K S W W ( ( ` [ ( W W ( W S W W W W W ( W W K ( K W [ [ ` ( ( ( K G N h 2 @ 3 6 & ",
"$ # x 6 g N m N D D P I ) ) ) T / Y G Y / ) ) Y ) T G T T T ) T / / Y Y T Y T T /  .T T R Y Y P D h f 3 1 0 6 X ",
"o X c 1 6 0 0 h h i N i m h m U F D F F D N F U U D F F F F F F D U F F T U U D m N m D U D N m h 3 g m V v 6   ",
"=   w & 6 o & 0 @ @ b   q ; 9 s F b p g m v q p O s } b s J x ; q 0 9 p B v F B } } b ; # > q p F f 1 # 1 q x n ",
"6   6 o & X 6 o + 6 q $ x e w > q v n x x x 6 c $ B B 6 6 n v #   o w B } q w # O e x # # 6 $ # b g g 6 6 = o $ ",
"  + w X o   8   # x $ 7 e > e x $ B Z y x c 6 y B C   y v # n c c n 6 x o = 8 8 6 V B q $ 6 # 6 # p x 6 = 6 o = "
};
