/* XPM */
static char *e20b53b8a8ae41c3e88f24c6f3a7699czJYyM6wKea4LP4kH[] = {
/* columns rows colors chars-per-pixel */
"56 56 235 2 ",
"   c #040403",
".  c #0B0404",
"X  c #050A04",
"o  c #0A0A06",
"O  c #02040B",
"+  c #0A060A",
"@  c #050B0A",
"#  c #0B0C0B",
"$  c #120D0D",
"%  c #12070A",
"&  c #06130A",
"*  c #0D110D",
"=  c #081007",
"-  c #13120E",
";  c #14190B",
":  c #010512",
">  c #010C13",
",  c #0C0E12",
"<  c #040A19",
"1  c #120E12",
"2  c #170D17",
"3  c #031214",
"4  c #0D1313",
"5  c #02131B",
"6  c #0A181B",
"7  c #131313",
"8  c #1A1514",
"9  c #1A1A16",
"0  c #14151A",
"q  c #1B131A",
"w  c #161A1B",
"e  c #1B1B1B",
"r  c #141A14",
"t  c #221C1C",
"y  c #211718",
"u  c #1C221D",
"i  c #17211C",
"p  c #22221D",
"a  c #26231A",
"s  c #0B1B23",
"d  c #031927",
"f  c #131C23",
"g  c #1B1D21",
"h  c #191825",
"j  c #09172E",
"k  c #231E22",
"l  c #261D23",
"z  c #012129",
"x  c #0A2329",
"c  c #1D2223",
"v  c #14252C",
"b  c #1A232C",
"n  c #192627",
"m  c #092635",
"M  c #142B34",
"N  c #182737",
"B  c #09323A",
"V  c #1B3438",
"C  c #242423",
"Z  c #2B2524",
"A  c #242A25",
"S  c #2B2A26",
"D  c #232529",
"F  c #2B262A",
"G  c #252A2B",
"H  c #2B2B2B",
"J  c #312D2B",
"K  c #312729",
"L  c #2D312D",
"P  c #293229",
"I  c #33332E",
"U  c #32392C",
"Y  c #232C33",
"T  c #2B2E32",
"R  c #282937",
"E  c #332D32",
"W  c #3A2F35",
"Q  c #2D3333",
"!  c #26333B",
"~  c #333333",
"^  c #3A3433",
"/  c #353933",
"(  c #3A3936",
")  c #333439",
"_  c #3B363B",
"`  c #353B3B",
"'  c #3B3B3C",
"]  c #423C3C",
"[  c #423937",
"{  c #3D423D",
"}  c #384031",
"|  c #43423C",
" . c #173A46",
".. c #0D354C",
"X. c #2B3A44",
"o. c #3C3D41",
"O. c #203C51",
"+. c #423E42",
"@. c #483F48",
"#. c #0A465B",
"$. c #194755",
"%. c #17444E",
"&. c #274349",
"*. c #3D4243",
"=. c #364449",
"-. c #274A56",
";. c #364C54",
":. c #39535A",
">. c #24535B",
",. c #184A67",
"<. c #1A5678",
"1. c #114E6D",
"2. c #254C6A",
"3. c #354D61",
"4. c #265269",
"5. c #385767",
"6. c #285978",
"7. c #335A78",
"8. c #2B4D72",
"9. c #126979",
"0. c #39656D",
"q. c #286577",
"w. c #386678",
"e. c #2E6B75",
"r. c #444343",
"t. c #4B4545",
"y. c #4A4B46",
"u. c #43454A",
"i. c #4B4B4B",
"p. c #474949",
"a. c #514C4A",
"s. c #4C514D",
"d. c #495444",
"f. c #56534C",
"g. c #484B52",
"h. c #524B51",
"j. c #495358",
"k. c #535354",
"l. c #5C5B5C",
"z. c #585857",
"x. c #615D5E",
"c. c #5B625C",
"v. c #62625E",
"b. c #475C65",
"n. c #595B61",
"m. c #435F74",
"M. c #625F62",
"N. c #4A646C",
"B. c #44636A",
"V. c #5B6267",
"C. c #456977",
"Z. c #557077",
"A. c #636463",
"S. c #6C6C6C",
"D. c #666968",
"F. c #726E6E",
"G. c #6E726D",
"H. c #6E6E72",
"J. c #757576",
"K. c #6E7373",
"L. c #827E7D",
"P. c #7F817C",
"I. c #85807D",
"U. c #165D89",
"Y. c #265E84",
"T. c #1B708F",
"R. c #296685",
"E. c #396A86",
"W. c #2D748E",
"Q. c #367788",
"!. c #3A7896",
"~. c #2D6A95",
"^. c #337CA2",
"/. c #426A85",
"(. c #4A7889",
"). c #547988",
"_. c #457C97",
"`. c #537C96",
"'. c #6A7C8B",
"]. c #457AA2",
"[. c #1E8993",
"{. c #39859A",
"}. c #338790",
"|. c #3A91A7",
" X c #3EB4B8",
".X c #4B869A",
"XX c #538B9A",
"oX c #568996",
"OX c #49828D",
"+X c #66899A",
"@X c #718A91",
"#X c #4888A8",
"$X c #5989A2",
"%X c #4996A8",
"&X c #5B97A9",
"*X c #5A9BB7",
"=X c #4796BA",
"-X c #6898A9",
";X c #7498A5",
":X c #689DB2",
">X c #6C94AB",
",X c #58A5B7",
"<X c #4DACB4",
"1X c #68A6B7",
"2X c #73A9B7",
"3X c #6CABB3",
"4X c #5CA7C1",
"5X c #55B9C3",
"6X c #6AB4CA",
"7X c #78B7C6",
"8X c #75BAD4",
"9X c #6BA9C4",
"0X c #77C2CC",
"qX c #76C7D4",
"wX c #6ACBCF",
"eX c #78E4EA",
"rX c #76EDF3",
"tX c #6CCFD3",
"yX c #8C8C8B",
"uX c #82A1B5",
"iX c #87BBC7",
"pX c #85CCD7",
"aX c #8FCCD3",
"sX c #89D8E6",
"dX c #90D5EB",
"fX c #A6DAE6",
"gX c #9EE1EB",
"hX c #9DE9F6",
"jX c #8CF2F8",
"kX c #A5EAFB",
"lX c #B3EEF9",
"zX c #B9F9FF",
"xX c #A7EDF4",
"cX c #97E2DE",
"vX c #C3F8FF",
/* pixels */
"      + + + + @ X = X - # - . .   o # * w @ , 0 0 O 7   w @   = o % $ 8 e       * * = - - % . % # o o o       + ",
"    o + + + + # X X X * o # . %     u #   4 4 g 4 , w O w 4 i   - . 8 o   0   * X     # - $ + % .   # #     o   ",
"  X o   O + + + @   X # * . $ 8 - 9     7 o g @ w 6 3 O @ 0 7 g + 7 f @ g e e 7 o     = = # + +     # o   + o   ",
"  o o     + , + #   # * 9 + 8 e o - X # 4 6 3 V V V :.b.N.b.! ! x s O : < 0 q . 7 o X & & & @       o o   + o   ",
"X o o   + 7 0 , 7 o # - e , 7 7 0 + O O 5 M -.(.oXoX-XOXXXXX:XoX).$.-.5 > < 2 1 q 7 * r 4 3 4 + o o + # o o o   ",
"o o     + 7 0 1 8 # # 7 0 , O O : : <  .0.3X7X3X,X7Xq.Q.&X,X,X,X,X7X1Xq.%.z : 2 k t 7 4 r 4 # 4 7 + # 7 7 o o   ",
"  X @ o + , 7 0 8 7 - 7 4 > O : < d 1XQ.qX,X|.}.q.1XR.%X{.T.9.<X}.qX<XqX{.Q.m < 2 l 0 # w 7 + 0 e # # 7 7 o o # ",
"  o # * # + 1 e 7 8 7 0 , 5 > > $.&XsXqXtX5X9.1X7X7XfXlXgXsX<X|.%X9.<XeXeXsX&Xm O 0 + . 8 7 + t D # + # #   # 7 ",
"o   7 7 + , 1 1 $ $ ~ 7 n > : B }.5XjXtX<XwXpXfX-.m 5 N :.%.e.xXdXpX[.[.rXeX3X(.d O , q 8 t # 7 F   7 #   7 7 o ",
"7   o o o 7 7 7 . k F , > : m OXeXeXjX[.wXcX3Xm 3   0 u.D > v  .+X7XsX5X XjXjXpX$.: : F + 8   o D o 0 7   7 o   ",
"# o 7 , 7 e 8 $ y q 7 > 5 d $.}.jXrX<XpXlX>.M b o.] H +.k k _ b X.w..XkXjX|.eXsXXXB : 0   @ @ Q 7 o e e 7 w 7 o ",
"  7 g , + C t 8 y . c 6 :  .2XsXtX5XwXgX-.X.) 1 8 t.C ' x.z.l q : X...XXhX5X|.wXpX>.: 6 0 n n & # o w 7 o 7 7 + ",
"$ 7 0     7 t C z.e w 5 > oXaXpXjX5XkX..j R @.q F u.4   Q g., h 1   >  .oXhX|.%X0X:Xz > D e r = w w C 7   o o o ",
"$   7 0 7 7 7 8 . Z o.! > oX7XhX%XdX2XB < h h.z.7 * A n G k.R 0 C D , > d &XkX}.qX0X .O 0 e / * # 7 C C w * o   ",
"+ + g D u w 7 8 y H c s z 3X0X0X6XfX0.-.> o 8 | | ; } U * F q o ; d.r.D 3.4.sX%X%XpX).: k y J I o # 7 w 7 # # # ",
"9 k F 7   7 C J t.C 0 >  .2XsX{.gXiXd ;.n L I f.| a | y.{ F + p P U y.g !  .7X6X}.6XoXd D l J Z ~ F 7 # o   8 D ",
"7 9 w   @ w 8 S . ~ T 5 -.2XqX4XzX0.x ` T e y.p   i.] o C { I y.f.p f.9 w ;.#.sX{.6X&Xz s h.[ $ C 7 7 o 7     w ",
"o #   * e w $ $ $ ~ c s  .7X8X,XzXw.:.R C 7 s.*.H r.' D C A H I t.9 y y.*.N.e.sXW.R.%XB =.A.y y C H H # o o o o ",
"e p # e H e 7 . ] p Y &.w..X#X%XgX+X=.u.k.F Q { F e C r.' Q ~ $ ] 8 S D.c ;.1X,X{.W.Q.$.> i.t.8 7 H F o o   #   ",
"H L e e D C Z Z   8 ` b.C.9X8XkXxXaX;., ~ k.s.L   $ k k.s.` r.F r.S / / D &.aXkX8X6X,Xw.5 ` ~ ( e T C 7 8 o w e ",
"8 7 7 7 w e D t.^ ~ T ! C.&X{.6XlX0.X.+ J ' *.i.1 H _ h.u.c ~ z.J.L r * c x XXkX4X&X1X%.5 4 w 9 e y.u.F D # #   ",
"-   * w e 7 1 ] 8 J u.5 5.XX{.6XxXz 6 ~ i.# # A.r.~ E o.p.c   ~ k.Q A / w V >.8XW.R.&X..O @ e #   ' _   # D ~ ~ ",
"S 8 # w G u 7 S $ # T M C.XXR.,XzXB.X.2 t 8 7 p.x.t k H u.o.# c *.D.s.i.*.:.$.1XR.<.2X%.5 )   F 7 u.y.C F ~ e 7 ",
"^ S   # H ` _ S 8 w l.V ).$X!.%XvX .V.q Z 8 o ~ M.9 E C D s.r.A.V.' - e G s -..XR.6.:X .s l.S.( k.i._ e ~ C   o ",
"$ - 9 A Q C 9 e ] | w x ).:Xq.#XfXN.g.1 K F { D.r.C E H H c s.{ G i.S J + b C.4.6.E.>X5.> w ' ~ # 7 e D # e D $ ",
"Z 9 7 4 + # H ~ ^ C 0 ! ;X:XW.!.fX&.*.h.^ ] G.G.H k q e Q l.V.7 7 z.p - ] ! >...,.7.$X5.s 0 k k._ F H ~ D D D F ",
"J p C G 0 e ' I - ~ g.! ).:XR.!.-X5 f _ 8 E y.u k.M.l.S.k.s.i.~ 7 k.z.J @.g.C.....E.2X .> +   _ l.L ~ D e e 7 C ",
"o $ p ' ~ G ' I Z - 4 s 3.$X_.R.oXV f q F r.L u r._ E +.o., 7 1 ~ S.t.(   b 5.,.,.7.w.C.f +.t.r.l.w H D e e # e ",
"  $ 7 A D w ( v.o t.*.v C.(.9X*XXXB b 2 _ r.e G D ~ ' ~ A.C F - s._   ] r.! ;X_.6.$X:X-.! o.+.i.x.o 7 # # w F u.",
"a p 7 4 e * C A.z.8 G > )./.*X*XaXM X.k +.A.k.p.~ ~ ~ F J.r p 7 _ + u y.J.b.iX2X&Xq.XXC.s 4 F F t.( u.' _ u._ e ",
"K t 7 * C w * t.- # u.5 +X/.R.!.iXz b h _ l.l.p.A.' # + A.9 e 9 7 r.| I c V w.7X1.q..Xw.M g J.' H z.u.J ~ { D   ",
"8 # 7 7 G G e k.y H g v '.7.Y.1.-X .g.H.yXi.w A ~ F.k.H s.e p 9 D i./ H C 5 2X9X1.R.&X0.s H.z.C 7 y.7 * H D w w ",
"# 7 7 D C D # S.F C w s '.$X<.1.q.).) - p y.e g +.t.z.k.A.A.A.P.J.G.p I G m pX8X<.R.-X5.6 J.u._ ~ ~ F F _ C o w ",
"7 C T 7 g r._ F.r.7 u.X.+X`.Y.1..XC.6 8 S J u.k E ~ # S.i.+.H p ( z.S.| D.N.7X6X#.!.$X .! D.w *.H r.r._ y.' w # ",
"Z o   + u.' D $ a.i.n.5 5.:X].6.1Xw.=.a.S r.D.u.E 7 c.{ 7 ' # 9 * I ( I u.;.:X8X1.*XXXd f r.~ ~ u.k.~ # e ~ ~ ' ",
"H w ~ C H 7 w Z x.~ 0 > 3.`._.8X1XaXc a ; S ) ) E H p.G o.i.~     - S.I , d &X4X*X*Xw.> Y h.A.C i.k.H # o - e ` ",
"D H l.D # ~ ( k.J D c 5  .2.!.6X8XfX3 - p z.u.G ' A.p.u w l.k.l.l.( F.l.*.b.gX6X*XW.w.d j.z._ ~ ~ y.H F e #   # ",
"w 7 7 ~ Q r.' ~ 9 J w s -.7.6.!.kX2Xj.v.{ G.D.D p.H ' @ k.yXz./ C r.  ~ '.'..X#X<.<./.z j.k # G H r.7 7 w e # # ",
"- 7 o k.T 7 ~ z.o ~ D s O.8.<.#XdX:Xj.S.z.s.K.l.F # A ` S.9 D.p Z S r.u ! C._.,X1.6.7.j z.y e 9 i.k.w 7 7 e 7 # ",
"# o c T @ D F F.k.- w < 3.8.Y.!.dXw.V L A A T o.l.w y.l.) C D.' J t t C b ).R.=X<.6.w.m '.@.H p.S.S.F D C e 7 7 ",
"9 F H # D C 7 ~ I.v.V.=.3.2.E.!.pXw.v { A { *.c D.k.{ A u.C F.A.J H t g X.uX!.^.U.R./.j n.h.~ e e y.u.7 # F # 7 ",
"( e w e e C e H Z 9 Q j.5.8.Y.~.dX6.=.{ A S D G ~ yXs.4 7 +.J.yXz.F F ' N 2X*X^.^.~./.m h @.a.  r ~ t.~ 7 e 7   ",
"H #   w 7 t e Z t.# , ! m.2.Y.Y.8X#.;.e C Q D D e v.z.i.z.J.k.H L.A.i.T ;.>X{.T.~.#X7. .R k C { A H ~ D 7 # D D ",
"p p w e g C t J a.e , v C.,.6.Y.4X4.b.e p C ~ o.J y.yXK.H._ H p r.A.J.` @X+XW.U.~.].2...R E A / e ~ ~ ' y.F ~ ~ ",
"F S G C D e H ( ^ J , s 5.7.<.R.#X7.V.F.P.z.n.l.J k.G.~ i.1   ~ 9 S D.D.N.(.|.T.~.~.8.j h E u A ( r.~ ' y.D D 7 ",
"~ - 7 g g e r.r.J ~ f > 5.w.<.Y.].7.f ( p.F ~ g a.v.L u s.n.+ w ~ o ~ @Xd E.4X|.~.~.7.N R $ X c.r.H w e 7 # C o ",
"~ 7 , c C F u.r.9 9 Q 5 5.7.6.Y.Y.7.b E ~ p T ~ k.s.u u D A.H 7 S # C K.M E.=X=XU.Y.7.N h J { *.* o $ F w w F w ",
"H _ e u D F C C r.e g s 3.`.q.6.,...v ) ' C k i._ ^ C C F H.i.# e F p.j.&.,.|.|.1.<.2.N 6 i.c.9 7 w # 8 # # w ~ ",
"* L ` | ' e t l F k f 5 5.+X`.(.(.(.-.j.6 G i.E y [ F t C i.s.G y ^ w X.C.OX1X%XW.W.6.B s ~ t.Z e e e w w 7 o w ",
"4 i u p J y l Z 9 e b Y :.N.).;X;X2X;XZ.b u.s.$ K K ^ ^ S c P A ^ ] g 3 B.oX1X%X.XQ.0.B 5 c _ t.t 7     # w 7 7 ",
"w 4 7 o 7 $ $ 8 E k.n.X.X.b.B.5.0.C.Z.&.b G 0 k y l ^ ( H A *.u ^ 8 # 6 B.C.w.w.q.>.-.x s Q S I ~ C e 7 7 w 7 o ",
"# @ C 7 C J I r.7 7 Y n V &.-.:.N.N.b.V b ) 7 C 8 e e ' ' { c.e e   @ ! =.N.N.5.5.;.V v Y s./ ( 8 # 7 7 # 7 7 7 ",
", o D 7 - 7 - e e 4 Q O 6 v V X.;.V v n n p.~ 7 C - 7 r.' ' ' 7 u C w w @ ` j.Y b Y f Y ` ` C H H w C ~ ~ F 7 o ",
"1   e # # 7 # - e   c > c > > b =.b 6 Y G D 7 e - p ~ J e ' D o o u 7 D ` ~ u.~ _ u.D 7 * # * r ' w # o 7 C F H ",
"1 . 8 # o # # X   u u @ e c g , g *.) e G C * L # ~ ( 7 7 ~ H 7 # * # _ r.8 2 y % F F + o 7 r * c C D w 7 7 o # ",
"+ + e #     o X   A @ w e 7 g D 4 ) u.w H A * u ~ ( o w ~ # H F C L e S . 8 t 8 8 Z r.y 7 * o 4 # C D # o 7 # 7 "
};
