/* XPM */
static char *frodo1_1_1712223938[] = {
/* columns rows colors chars-per-pixel */
"56 56 230 2 ",
"   c #040404",
".  c #0A0603",
"X  c #0B0905",
"o  c #060A0A",
"O  c #0B0B0B",
"+  c #070807",
"@  c #130E0C",
"#  c #170C07",
"$  c #0D100E",
"%  c #13110E",
"&  c #1C120E",
"*  c #0E0E10",
"=  c #0F1211",
"-  c #131313",
";  c #1B1513",
":  c #1B1A16",
">  c #161719",
",  c #151A19",
"<  c #1B1B1B",
"1  c #181817",
"2  c #120E12",
"3  c #26140C",
"4  c #361B09",
"5  c #241A15",
"6  c #2C1B14",
"7  c #231C1A",
"8  c #291E1A",
"9  c #221612",
"0  c #2F1913",
"q  c #1E201F",
"w  c #23211E",
"e  c #2C211C",
"r  c #2A2A1E",
"t  c #32231C",
"y  c #3A251A",
"u  c #382418",
"i  c #1D1E21",
"p  c #221F20",
"a  c #281F20",
"s  c #1E2222",
"d  c #242423",
"f  c #2B2522",
"g  c #2A2A25",
"h  c #252729",
"j  c #262929",
"k  c #2C2C2B",
"l  c #292727",
"z  c #332722",
"x  c #342B24",
"c  c #3B2C22",
"v  c #332D2A",
"b  c #392E2B",
"n  c #2E312C",
"m  c #2E3026",
"M  c #33322D",
"N  c #3C332C",
"B  c #3A3027",
"V  c #2D2E30",
"C  c #2E3332",
"Z  c #2E3638",
"A  c #343433",
"S  c #3B3532",
"D  c #353935",
"F  c #3A3936",
"G  c #3B3C3B",
"H  c #363839",
"J  c #442A1A",
"K  c #592E16",
"L  c #59331C",
"P  c #4E240B",
"I  c #63351A",
"U  c #422D22",
"Y  c #4A2D20",
"T  c #4B3324",
"R  c #44332B",
"E  c #4B352B",
"W  c #4D392C",
"Q  c #453327",
"!  c #533B2D",
"~  c #5A3D2C",
"^  c #573624",
"/  c #4C3B34",
"(  c #443D3B",
")  c #453A35",
"_  c #553C32",
"`  c #5B3D31",
"'  c #663D25",
"]  c #623E30",
"[  c #3D413D",
"{  c #41413E",
"}  c #4A413D",
"|  c #4C463B",
" . c #544235",
".. c #5A4333",
"X. c #53433B",
"o. c #5B453B",
"O. c #5C4B3D",
"+. c #51483F",
"@. c #6C422A",
"#. c #744529",
"$. c #634332",
"%. c #634B3D",
"&. c #6B4D3D",
"*. c #674736",
"=. c #764C35",
"-. c #6C513E",
";. c #74523D",
":. c #7C543C",
">. c #3E3E40",
",. c #3F4443",
"<. c #444443",
"1. c #4B4544",
"2. c #464944",
"3. c #494A46",
"4. c #454A49",
"5. c #4B4B4A",
"6. c #434649",
"7. c #534944",
"8. c #5B4B43",
"9. c #534D4B",
"0. c #554B45",
"q. c #4D524F",
"w. c #5A514D",
"e. c #57534C",
"r. c #4E4E51",
"t. c #524F50",
"y. c #545453",
"u. c #5C5A55",
"i. c #5C5C5B",
"p. c #585757",
"a. c #664D42",
"s. c #6D5343",
"d. c #675549",
"f. c #795643",
"g. c #755B4D",
"h. c #7C5D4B",
"j. c #765645",
"k. c #645D5B",
"l. c #665953",
"z. c #755E54",
"x. c #5F615C",
"c. c #64625D",
"v. c #6D645A",
"b. c #7D6455",
"n. c #746658",
"m. c #7C614F",
"M. c #5C5E60",
"N. c #5E6364",
"B. c #646563",
"V. c #6A6562",
"C. c #6A6965",
"Z. c #6D6C6B",
"A. c #686868",
"S. c #736B64",
"D. c #756C68",
"F. c #6D716B",
"G. c #74726D",
"H. c #7B726B",
"J. c #777668",
"K. c #757572",
"L. c #7A7A74",
"P. c #7B7A78",
"I. c #6E7170",
"U. c #85563B",
"Y. c #804C2C",
"T. c #855B43",
"R. c #87654C",
"E. c #816254",
"W. c #8A6956",
"Q. c #936D5A",
"!. c #93735C",
"~. c #9A785C",
"^. c #A07F5E",
"/. c #886E63",
"(. c #867769",
"). c #947363",
"_. c #997967",
"`. c #837B72",
"'. c #827D7A",
"]. c #877A72",
"[. c #977E72",
"{. c #A37B65",
"}. c #A37E6B",
"|. c #A87967",
" X c #A07E72",
".X c #7F8278",
"XX c #87847C",
"oX c #988476",
"OX c #9B826B",
"+X c #A3836D",
"@X c #AA826E",
"#X c #A6876A",
"$X c #A38374",
"%X c #AB8674",
"&X c #AB8975",
"*X c #AA8A7A",
"=X c #B28673",
"-X c #B78C78",
";X c #AB907D",
":X c #B6917D",
">X c #C18E7B",
",X c #8A8785",
"<X c #968D87",
"1X c #96948E",
"2X c #A99387",
"3X c #BD9582",
"4X c #BC9B8A",
"5X c #B59788",
"6X c #A99C94",
"7X c #ACA199",
"8X c #B6A79D",
"9X c #B9A08C",
"0X c #B8ACA4",
"qX c #ADADA9",
"wX c #C49B8A",
"eX c #C7A897",
"rX c #D3AD9A",
"tX c #C4AEA3",
"yX c #C6B3A7",
"uX c #D5B9AA",
"iX c #D6BEB1",
"pX c #C2B9B3",
"aX c #DDC2B4",
"sX c #DAC3B7",
"dX c #E6C9B9",
"fX c #EAC7B4",
"gX c #F7D9C9",
"hX c #F5DACD",
"jX c #FFE1CF",
"kX c #FEE6D8",
/* pixels */
"      + +     X + O O O O -   O   X 1 % * 2 * 2 2 * 2   a . # . . # # # w X   o o = o = q     O O X o X       + ",
"    + + + + X O   O O - - O X + X O ,.<X1Xt.A a h A a >.b ) 9 a b z H.,XV.g X - * o o o = o O     + O o     X   ",
"    O     X O O X +     X   i - X <.1XK.A a p p a a a R v 8 8 z z / R ) ,XXXD % o   = * $ $ -     + $ $   O O   ",
"    +     O * O O O O - i O > - F p.k - a a a p v a a a 6 t b _ a a.1.R 7.'.P.  o   O = $   $       + +         ",
"  O +   + 2 - O 2   O 2 p o 2 >.K.d d f @ ; 9 9 b 6 6 6 R R _  .E / w.l.t w.,XV 1 < O % < X =   O X O O + + +   ",
"+ O + + O * - * p O - - > o a P.f k @ @ & # 8 9 9 # 3 6 o.a.o.J U E 8.8.R 7.].pX& w 1 1 q $ , O * O * - = O     ",
"  + O X O O 2 - > O 2 >   O p H - - : ; 7 a & & 3 E U %.s.).s.! o.o._ / R 7.z.7X} % % % - O O , i O O - 2 O O O ",
"+ + O O O O - < - < 1 i   V r.p w % @ 5 & # 0 0 U s.z.&.z.E.h.s.z.E.o.E U _ l.D.qX5 . X % - o q h * X * O X O - ",
"o + = = o $ O - 1 - l - i 6.7Xp ; 7 2 9 9 9 0 y _ j._.a.^ $.f.f.s./.a.U E _ 7.8.6XB % % - < = O k   - O   - * + ",
"-     o O = - -   - H d 6.'.r.p p 9 # 7 7 0 U T U s.Q.*.^ ' *.f.W.W.*.U _ E 8.8.| 0X| M $ O o   d O - 2   - O   ",
"O o - = - < 1 $ l - + ; ,Xa p 1 ; 2 ; 7 9 y E _ y ] f.*.j.T.f.] ..L Y %.s.J E _ } 6X0X; X   - Z -   d < * 1 - + ",
"  = < $ O s w - < O p H K.l < 7 ; & 5 9 9 U ` E ] ] &.&.Q.{.!.T.h.E.+XuX$XE U _ a.v.<X% % l < - O O < - + - 2 O ",
"= = ,     = < d 5.d 1 @ 2 1.> 1 ; ; 7 0 z E _ _ $.f.).}.5X=X&X_.#X9XaXaX;X-.O.-.d.(.XXz w w - > < < i -   O O X ",
"$   = , - = - , X p H >.1.>.a 7 5 2 9 z R E ! ] E.f.:.f.W._.:X&X9X;X9XOXoXg.%.o.O.].7X  % k j * O - d d < O O X ",
"o o q s q q $ , i v h 7 l t.; - & & & 0 / a.%.j.W.&.*.f.).:XeX+Xb.*.*.-._.(...O.O.v.<Xb f 2 V >.O O - < - O O O ",
", s s ,   - d n 6.l O 2 V k.a a & 5 0 & E z.j.E.*.] &.T.).:XrX%Xm.;...m._.9XE W  .d.].@ l k d s D l - 2 O   < h ",
"- : , + O < > j + >.a v A.v v z 9 # 6 3 E h._.E.E.*.W./.2X XuXfX[.[.W.iX8XeXT W a.n.| ; < <.>.- d - - O 2     < ",
"X $ + $ i > 2 * 2 h p ) k.z b ) 7 & 6 0 s._.*X X X_. X[. X|.uXkXeX<X2XiXhXkXE U w.n.7Xb k.V.7 * s k v O O + O O ",
"q q o < j i > X A V l 1.7.a f w.x 5 0 0 E.[.%X%X2XeX5XwX*X X3XgXjXgXdXhXkXhXd.U k.[.<X1.  1.6.j - j h +     O   ",
"k m < < h h j j 2 2 V ( S z a k.b 9 3 y E. X X&X3XwXwX5X%X|.-XgXdXkXdXaXkXsXa./ / yX<XS r.H G V < V d - < O < < ",
", % , - < < h 4.v >.1.v v 1.8 } 7.5 3 U g._.%X}.wXwXwXwX XQ.|.uXaXdXgXdXuXuX..o.l.8Xe y.p.- > > 7 3.<.h h O O   ",
"%   $ , < - = >.< a V * S D.b z u.t t Q -.!.+X}. X-XwXwX~.T.T.|.!.rXfXdXaXiX! 8.8.7.k.V.@ O - -   >.G   O d G A ",
"l 1 $ < j p > h X 2 ( A 9.XX) ; B e 6 J &.!.+X@X-XwXwXwX=X|.>XwXfXjXdXdXaXiXg.+.X.b 9 ) y.h O j 1 <.5.p k k < 2 ",
"D g   O k H G h 1 < y.<.( c.v : 9 5 6 J j._.~.|. X-X|.>X=X>XwXwXfXgXgXdXdXaXo.7.7.R < < G i.I.A p.5.G i A d   O ",
"- % - h n k < > D <.d 1 f 9.5 7 : & e y &._.^.^.|.>X=X-X=X|.|.|.#XrXaXdXdXsX .X.v.1.5.A.p., [ A * > < l O < d 2 ",
"w 1 < <   o V G 3.< - % g S g & & # 3 J s.Q.~.^.|.wXwX|.T.' U.|.wXrXeXfXsXsX].l.9.( c.k - < , y.D k V D l l h j ",
"k w d k - < >.V o F 3.<.C.M M # & & 3 W j.T.!.#X|.%X=X=X|.|.|.|.:XrXaXeXsX8Xv.N @ - k 5.A $   A i.V A d < < 2 d ",
"% o < G C j >.V d , 1 { i.u.: w % & 5  .s.-.R.~.|.|.@X%X|.|.|.|.&XwXyXuX0Xn.+.v p - * I.p.D { 3.i.1 V d 7 < O < ",
"  O 1 j d , G B.O ,.{ h p.F : 5 ; ; 5 o.g.;.h.R.Q.~.}.{.|.}.wXeXfXgXuXyX6X,Xa V >.j >.,.d ,.[ 5.i.O - @ O < k <.",
"w d - - q = d N.p.h A.A G w g g w 7 e X.n.W.m.:.R.R.W.!.{.%X-X-XeXeXuX].2XH.1.V 5.M.M.I.H - d w 1.H 6.G G 6.G < ",
"v < 2 O d i > 4.n G D M w M k g v f x / n._.~.W.@.;.T.W.Q.~.|.}.$X2X2XyX8.a r.6., s i M.i.j A.1.j i.6.k D G h   ",
"- O < > s k H P.D k n g A r M A A v ) B O.OXOX#X!.R.f.;.T.W.!.).oX2XyX0 8 7 o >.M.o i , j i.A.< - 5.- @ k h < - ",
"O , % q k f C.G A k k M M g g m k A A v R d.OX;XOX#XOXR.R.R.!.OX2X0XXX| e 7 i.h d , Z 6.h P.4.Z A A l k H d O > ",
"$ w n w 3.u.M v v f r g d g g m n m M M B N O.OX#X#X#X#X~.!.OX#XsX7Xd.[ V.k.d A G Z i Z 6.M., ,.j <.>.G 1.G < O ",
"D $ q y.F k f k x v k m M D D n D n m [ M e c ..OX#X#XOX~.!.$X9XtX(.N XX) 1.d i y.r.>.i < 6.Z H <.r.A * < A H G ",
"[ I.n n A M M k l g k k m M m g m m n m M M B c  .m.#X#X$X+X$X5X0Xr q v.. .   H V >.G - h p.M.p 5.y.k O o 2 < G ",
"[ [ k k k k f x M M M l g k M m r m [ m m n B M 3  .m.OX*X*X5XeX0Xf N V.i.( H H h 6.a 2 A.t.H S A 6.k k < -   O ",
"D q A g M M g v v v v v M M m g r r r m C n n m Q c X.b.oX$X5XiX8Xr l L.,X,X1XZ.p.Z.N.>.k.> > v V ( 1 1 < < O 2 ",
"m n m j M j g g : ; ; 7 r r e : 5 : q m D Z Z C [ | d./.oXoX2XtXpXl 5.,XL.P.C <.p.M.P.p.t.2 a > r.p.1 - - < 2 O ",
"n s k G <.y.y.3.M w % 1 e M D N r m m q , q s C M u.J.S.(.XX7XyXqX( L.L.K.P.p.q >.a > p '.6.b 9.Z.Z.k h d < - - ",
"k A { 5.y.i.x.x.e.S ; w w S g x r y D C C Z Z s , m [ n.J..XJ.0X1X1X.X.XI.,X>.i h > = i r.y.A i < 3.6.- O j O - ",
"A D G ( 3.q.c.F.C.y.( A z S v } +.0.e.| C [ ,.4.[ % r r | x..XXX.XXX.Xe.4.F.H > o V H h i >.>.X 1 A 1.A - p -   ",
"F F D D F 3.x.G.G.G.c.w.9./ b } w.v.V.y.4.q.N.I.x.2.: r r .XXX.X.XJ.u.e.K.F.qXd 2 d i >.C j j <.h k A l - 2 d l ",
"A A D F F <.u.c.Z.G.G.V.V.9.v S w.V.G.G.F.I.L..X.X.X.X.Xn..Xc.J.XX.Xu.v.u.C.K.qXi p * s A Z d A 1 A H G 5.j V A ",
"v M D G <.1.5.y.A.K.K.k.v.9.v S u.C.L.L.K..X.X.X.XOXn.n.n.<Xn.Q J.n.| n.'.S.S.P.e.1 2 V A h < V G <.D G 6.d d > ",
"A A D { <.3.3.5.k.Z.`.Z.l.} z N y.B.C.F.K..XJ.OX.X-.! -.d.tX0XXXOX..-.d.R z.`.`.,XG p G A O > k.6.k 1 < - O d X ",
"A S D ( <.<.1.5.t.A.'.H.w.} a b q.B.C.F.XXXXn.n.! ..m.*.s.[.sXsXaX^ n..._ t / S.H.<X1.7 ; A 6.>.- + 2 l < < k < ",
"A A D G ( <.1.5.t.V.Z.D.7.} f z { i.x.C.XXS.| u ^ L -.:.f.` *XjXaXT h.-.o.U X.R l.H.a a < r.M.p - < * 1 O O < A ",
"v M D { 3.4.2.3.y.V.P.G.} ) e 8 S e.i.l.| t W ! $.K ' =.=.:.I rX8XY U.I ;.$.R / 8.8.XX& r m r.j i i p 1 > - X > ",
"M M D F | 2.[ [ q.c.L.Z.( S 8 8 B } ( ) ) R J ..J L @.U.' U.L ' OX..T.I @.^ u _ y  .J.y < j Z ,.i *     * < - 2 ",
"A S D { 4.2.,.,.q.i.K.C.( b 8 8 x N r 5 x / u ! P L I =.@.Y.=.L %.T U.#.' L 0 c  .-.g.X % n j >.A d < - - - O O ",
"M M M G 2.2.[ 2.q.c.G.C.) f 8 8 z x & 5 z / u T ~ I @.I T.' U.I *.Y U.#.I *.a./ T  .n.9XG y.H A > O > - O - - * ",
"g M D [ [ 2.,.5.p.B.Z.V.N 7 5 e x c 9 z e b U J -.L =.K U.@.:.P 4 4 Y.Y.I =.] 0 T  . .J.S k V j k > d v A j > O ",
"m N [ [ { [ 2.q.y.B.B.c.v : e t R t 9 b 8 u Q J ^ L @.P Y.:.#.@.y Y Y.' K f._ c u d...d.@ O p > G < O + - 7 l V ",
"m M F F [ D [ 2.y.B.B.c.v 9 8 z / z 8 c e 6 y U P ~ #.I #.T.I U.4 P Y.Y.I =.Y 3 u ....O.'.1 X 2 d d d 1 - - O O ",
"M F D D [ [ [ 4.y.c.c.k.b & e z } c z z c t 3 T ! ' =.I P U.#.=.^ 4 U.Y.P =.] 3 4 J -.O.<X- @ 2 O s h O O - O - "
};
