/* XPM */
static char *d1d5a5363a6845e3c84299fa6ec98befrqqvWWya9q3bhimQ[] = {
/* columns rows colors chars-per-pixel */
"56 56 182 2 ",
"   c #171310",
".  c #271E17",
"X  c #231E1A",
"o  c #281F18",
"O  c #26211E",
"+  c #29221C",
"@  c #252322",
"#  c #2B2622",
"$  c #2D2925",
"%  c #292728",
"&  c #2D2B29",
"*  c #332B25",
"=  c #322E2B",
"-  c #392F2B",
";  c #35312D",
":  c #3A322D",
">  c #332F30",
",  c #353332",
"<  c #3A3532",
"1  c #3D3935",
"2  c #3A3738",
"3  c #37383A",
"4  c #3D3B3B",
"5  c #413731",
"6  c #423B36",
"7  c #433E3B",
"8  c #493F3D",
"9  c #45413D",
"0  c #4B433D",
"q  c #55443D",
"w  c #58453F",
"e  c #3F3E41",
"r  c #403E41",
"t  c #444242",
"y  c #4B4542",
"u  c #4E4945",
"i  c #4B464A",
"p  c #4E4B4A",
"a  c #514742",
"s  c #534B45",
"d  c #5C4C44",
"f  c #534D4A",
"g  c #594F4A",
"h  c #56514D",
"j  c #5B534D",
"k  c #4F4F51",
"l  c #514F50",
"z  c #555352",
"x  c #5B5552",
"c  c #5E5955",
"v  c #5B5758",
"b  c #5D5A5A",
"n  c #62554D",
"m  c #68574F",
"M  c #615B4F",
"N  c #605750",
"B  c #625B55",
"V  c #6A5B53",
"C  c #645E5A",
"Z  c #685F5A",
"A  c #715E57",
"S  c #6A6057",
"D  c #66615D",
"F  c #6B635D",
"G  c #72645C",
"H  c #78675F",
"J  c #72685F",
"K  c #7A695F",
"L  c #666362",
"P  c #6B6562",
"I  c #6E6964",
"U  c #6A6769",
"Y  c #6E6B6B",
"T  c #706761",
"R  c #736B65",
"E  c #7A6E65",
"W  c #736E6A",
"Q  c #786F69",
"!  c #757166",
"~  c #7B7066",
"^  c #76716C",
"/  c #7D766E",
"(  c #7F766F",
")  c #7E756D",
"_  c #7B736C",
"`  c #726F70",
"'  c #757272",
"]  c #7C7270",
"[  c #7E7771",
"{  c #7B7572",
"}  c #7E7974",
"|  c #7B7778",
" . c #7E7A79",
".. c #81776E",
"X. c #83746A",
"o. c #88766E",
"O. c #82786F",
"+. c #807A6E",
"@. c #807770",
"#. c #807772",
"$. c #807771",
"%. c #817871",
"&. c #837A71",
"*. c #807973",
"=. c #837A73",
"-. c #857870",
";. c #847A71",
":. c #857C73",
">. c #837B75",
",. c #847B74",
"<. c #847B76",
"1. c #857C75",
"2. c #867D74",
"3. c #877E75",
"4. c #877E77",
"5. c #847D77",
"6. c #837B74",
"7. c #887F76",
"8. c #887E75",
"9. c #887E76",
"0. c #847E7A",
"q. c #887F78",
"w. c #8A7F79",
"e. c #887F79",
"r. c #907E74",
"t. c #898077",
"y. c #8B8177",
"u. c #86817D",
"i. c #898079",
"p. c #8A8178",
"a. c #8B8279",
"s. c #89807B",
"d. c #8B837B",
"f. c #8C837A",
"g. c #8F827A",
"h. c #8E8179",
"j. c #8D847B",
"k. c #8C837C",
"l. c #8C837E",
"z. c #8B847E",
"x. c #8D847D",
"c. c #8F867D",
"v. c #8E857E",
"b. c #8F867F",
"n. c #8A837C",
"m. c #90857F",
"M. c #92887F",
"N. c #868281",
"B. c #8C8682",
"V. c #8D8985",
"C. c #8D8989",
"Z. c #908780",
"A. c #908782",
"S. c #908780",
"D. c #938980",
"F. c #938A81",
"G. c #928982",
"H. c #948B82",
"J. c #948A81",
"K. c #958C83",
"L. c #968B85",
"P. c #978E85",
"I. c #928B84",
"U. c #9A8C84",
"Y. c #938D8A",
"T. c #988F88",
"R. c #96918D",
"E. c #9B9289",
"W. c #9D948B",
"Q. c #9F948E",
"!. c #9A928D",
"~. c #938F90",
"^. c #979390",
"/. c #9B9591",
"(. c #9E9A96",
"). c #9F9B9A",
"_. c #A19A95",
"`. c #A59E9A",
"'. c #A8A39D",
"]. c #A8A3A0",
"[. c #AFA8A2",
"{. c #BAB5B1",
/* pixels */
"Z._ Q ) 4.B ) B R _ D.O.O.R 5 _ m._ ) E S 4._ F 7 - 7 j F [ *.>.F f W s.z._ R W s.) _ B b.4.E.8.t.S Q _ 2.W.J.8.",
"_ b.S Z ,.) T Q T g ;.J.8.R 0 F h.O..._ Q 4.*.R F - h B F s _ ^ I Z h W ) _ R D s a ) N ) b.j.j.) *.R t.4.K.L.J.",
"[ #.B j #.) T T B B B L.w.R j T H E R S j D.s.j R ; a D F u F u s _ j x F P R ^ j o 9 B ~ J _ F Z Q s.b._ W.2.F ",
"j _ l.Z R T T B B S B Q.m.Q Q F F G F J a Q s.S j s # B h c _ F B W W *.Z T _ _ *.B - 0 j 0 V _ N B T *.L.s.R j.",
"s x Q Z x F Q x Z F Q F Z N _ F R E T _ R j ) T D 6 # 6 s 1 Z _ s F 4.W [ R j F _ Q R 0 j - 5 V f 5 F Q _ *.s.s.",
"f : j _ T B R S j Z Q j 0 : F R R R _ J T ) ,.P I f # X X 0 x ^ h ; R [ T R Q Z Q _ 2.2.D.8.* * * . 9 f j Q b.s.",
"x y 0 f _ Z ] R j j T Z.F < x T F Z _ R J D.,.,.S S ; < $ - < h P f 0 _ w.s.) s.l.w.h.) F *.E V F j S a q B B T ",
"[ P s y ] n.`.W Z B F _ _ s a R S J E ;.D.*.B j S R P 7 1 s $ y j F 6 0 D.#.w.*.J *.;.R _ _ s.2._ _ m.b.E n R B ",
"*.W Z - F W g x B s B R R F s x B B *.S ,.Q _ T F *.5.P # {  .y F Z 0 $ [ n.S b.*.S ,.b.O.J E P._ Q 8.m.*.F J L.",
"n.I f - 7 c W F F Z x g Q T Q F R F T R S *.W B._ W n.W * 9 { P u F T ; P I.*.B b.) _ Q ~ ) *.s.4.*._ J.s.Q B D.",
" .0.P ^ 6 B W R P B g y u P R F F B F _ Q 4._ [ >.4.>.Z < = c ^ c 8 4.F h f T B F t.D B n _ *.s.Q _ 4.Q *.D.F 4.",
"x ] W [ j C F Z R R s x s P W P Z P W [ B j j F _ Z ] R.c $ h C c 6 B D f D j B 0 s.*.) B J Q E _ T ) j J E.( Q ",
"7 W W F D C B f Z R g s R 5.5.[ P F F ,.Q j j T Z a 0 R W ; x L B - s R c z.z.F : 0 [ 5._ F Q _ T B B f 7 F d._ ",
"X s B s C B F y C P R s Z 5.5.5.n.f B L._ B j g R _ C x D 7 y Y I y 1 I C R 0.u.B : R F j T 4.s.4.S T T 7 7 R _ ",
"u y I u P c { h u j Z x 0 W >.*.) n.* B R s a 7 g x Q 0.h ; , y Q P 1 C f R W [ R : y F B j B ^ !.Q ! V.[ B I 4.",
"x < ^ h c s I P P j P Z j 5.P _ B I.B 7 Z 0 0 a R W 7 x { 1 ; ; 7 9 c B y s P I F C < ; 9 6 j j [ n.T I.s._ Q *.",
"P y x c s B B Z ] B Z <.R Q ) _ Q F #.T T B j _ B.[ W 7 s h 7 ; 7 u p x 7 p c W  .Y P C u ; c x a N Z j f j B _ ",
"c u < 7 s x c c C F a x Z f _ [ ) F S N *.T.B F [ >.I C f 9 9 ; $ = 1 7 x h P W I W c _ ^ : : Z Q 5 5 j _ T I R ",
"x P ; 7 ; 7 s x C R F x Z g 6 n.s.#.4.R S b._ Q _ >.I.5.h j h , # ; X $ 9 y 9 = < ^ D y ^ 0 5 9 E 2.Z n f T 4.! ",
"C c 8 $ s < * y f x W Y.] Q < j I.) *.D.*.R F *.B.>.4.I.c u { c s x u = ; $ y u = # P C 5.u.D.Q 8.t.4.~ B M j.O.",
"{ L L s ; C 1 u u u B R 5.Y.Q s ,.4.s.) 4._ _ F Q b.z._. .c { c c W N.D 9 u h x ^ D 7 B F T _ 8.;.~ X.E _ ~ H t.",
"W u W ^.y s j 9 7 C P x s R 0.n.) ) s.T ) Q _ ) T b.[ L. .D { W < u R.u.P ^ h h F I._ P I j Q s.H K E G V ~ E X.",
"9 9 P R.D < s y 8 h ] y Z C c [ [ D.I.[ D.#.T _ *.E.s.c B I f W ^ D B { s _ D [ c _ I u._ S R J A E q K G o.K X.",
"9 ; u {  .s $ & = ; $ y 1 8 u 8 ; I n.5.R Q s.Q 4.B 5.>.B Z F s D  .P _ 9 h B c 0.h D u g g j V d X.A d n r.U.G ",
"h 9 7 f u { x , = = # # < 7 ; y $ $ B [ j 5.b.R Q 0 7 R W P Q F 6 0 P R.^ : u f x y 0 9 B 9 g F d V o.X.w m X.V ",
"7 p 0.z s P V.2 9 7 = ; # h ^ 7 y 9 6 B.f Z ) 6 s N 9 F R _ F R c 9 1 j 5. .7 j s : y B 5 < 5 0 d G n J R n q n ",
"9 1 { D C < s Y z y = , 2 2 L y < D 7 s Q c B.B.n.9 < W I x R W [ S s y s _ F ^ ^ c x y c ; - : : j B j S _ T ) ",
"O ; P W ' W 2 , { x , ; t 2 < 2 7 < y y I W Y.!./.*.9 * _ F f *.B.s._ j 6 0 6 F 5.y 6 y 7 6 s ; : x D c s F I u.",
"= @ z ^ C D ' y v Y.2 , & 7 , X = 4 W s I B. .u.I.Y.5.y 8 P C F n.D.L._ B j f 7 D I 0 c I 7 c F h L h y p ^ 0.{ ",
"= $ y W N.b I z @ ' W 2 & % 7 @ O & C  .x P 9 x n._ n.B.B x s F V.L.5._ _ B c B x P u.s I x u D < c I y I P _ _ ",
"9 ; x {  .^ P f 7 1 C.{ t t 2 2 % @ & 2 t 7 = < R Z f <.B.R s x [ >.z.[ *.) h x D 7 C I x I h W u < ^.u s u.^ *.",
"p & y { { B. .{ Y h 0.).u.x p 7 7 , & % % = = ; 7 [ 6 f W } B 7 F x F n.^ 5.0.W 5.F x h h y < 9 c 1 D P 6 P R ) ",
"1 7 1 s f ` | C.u.y c (.V.P x u 9 7 7 7 c s = ; O 7 9 ; s u x 9 1 P C c P W [ 5.B.n.R h 9 P h s < s y C 1 P R  .",
"D 7 x x t v ' { ' L f W Q c Z g L f v y D ' D D f 9 = O D I s 1 2 y x x h ^ _ Q R [ Y.R $ y D { y < c { 7 h _ W ",
"[ j ; x z > L Y C I D  . .c W P P  .x P 1 W Y.Y.N.^.^ # $ u.5._ 7 7 D Z 7 7 B B Z F P { C ; ; c C x 1 I ^ y D ^ ",
"R _ Z 8 = = 2 ` W v C 0.Y.Z x  .'  .W C p 7  .0.0.Y.Y.D 6 7 u D s = x  .W P W Z h R [ 0. .W : 9 C x < < L 1 9  .",
") a R !.P 7 > = Y x p f B. .v } P ^  .C Y 7 I B.B.0.`./.R n._ ^  .u 1 ^ P u B x B y W u.5._ ^ C x B c 9 s y X p ",
"Q F 0 /.B.Y , = & & = & C ] W { ' L N.h C L D x I { _ _.W [ 5._ B.{ 1 9 _ y - - 7 9 ; E.'.u.{ Y.0.0. .^ u = # $ ",
"T _ 0 y I c t 2 < t h 2 & h ' z Y Y | Y t b { x < W  .W W P Q _ I.B.[ s 0 f 0 f B F 9 F s.I.[ S 5.4.[ W  .s y < ",
"_ Q >.[ Z c y C  .f b Y y > z b W f x D ; 2 ^ `.c 8 I I _ _ [ 4.Y.^._ `.*.B y x x ^ c j Z f F c B 5. .z.^ V.V.B ",
"_ Q _ Y.0.] b y u.I x { b & % , b x & y 4 2 x  .Y.c C c s } z.z.I I.D _ R._ _ F f 6 s f B Z u W x ^ D ) y h P W ",
"*.) [ >.] W ] s ^ c ^ ^ Y v L 4 2 C t z u.9 @ p  .{ x D x g P P j I.!.B.[ s B !./.R j P F _ R f y s 0 f P c P 0.",
"_ S P ,.0.Q n.P g c P ^ 0.P ` z b  .0.f z z p % t  .Y P C c 9 c F z.I./.R.y - c /.!.0 Z P Q 5.5.F n.4.P ^ C C { ",
") F x F _ <.0.>.P { x D  .' U b x 0.W L y 4 y 4 & t ' ' W 0.Y.h 7 R I I.V.P $ # 6 I x u f _ B.W [ B.[ [ [ { I  .",
"D.,.W F Z P Z [ R D F P Q N.| P v {  .z z 4 t e 4 & 2 ^  .N.C.u.C y P R P I { D   D I y c c [ R _ [ I Q _ 5.>. .",
"_ *.,.R R B 6 f 4.I I D x  .C.P c C 7 7 v z k p 4 t & t U Y 0.N.^ 6 : j s P V.^.< O { h P ; 0 >.I.n.R R D F _ Y.",
"*.T #.#.W Q R 8 B 5._ [ x L 0. .I u.N.y 2 z U Y t t 3 3 z | U N. .[ P _ u.{  .^.D X = h 1 , * c _ _ ^ P Z W I C ",
") 4.P R _ T _ [ h W P  .P y h u.u.u.R.W v t e ` k 4 p t p z L { { j [ z.{ I W ^ (.b O 7 y y 9 $ f s W P F ^ { P ",
"F 4.R R J F F ) R y I { ^ D y c P ^ u.C ^  .7 z ` l 7 p 3 e v v I x P N.{ x P W B.B.7 W V.y 2 < u u s W B _ u.n.",
"x R R R ) F a S B W h C ] { Z Z P c  .N.t { 7 f b Y z , r , U ' { F ^ _ P j C 5.Q Y.^ 7 ' x 7 = y p 8 c g P F F ",
"Q x B Z ....B s W F W u I I D P { I W u.D c p 2 2 C ` p 4 i i C.u.^ D [ D y 7 ^ R R.N.y s 5.u 6 $ , s , , I W Q ",
"P W W P F _ w.0 < x I D { V.R B  .>.W { { 0. .P y y | ~.L 7 4 v  .W c  ._ h 6 x x W V.^ h {.Z u y = Y <.y P j F ",
"0 Z >.F B Q #.l.x x I b P Q ] j P u.W N. .{  .].L @ W 0.| L 7 Y C I P I { ^ B s # u _.L.- x x + 9 , 1 ^.R j #.Z ",
"- f B _ l.R Q 4.e.s W P x P P Z g D W Z { ] { Y.{ 7 L b ` 0.2 y P C I x h 0.P  .x x !.[.T S s.y - 2 < Q 5.s x R ",
"# 6 f B 8.#.;.*.Q P ^ W W { I W c B P B P c W  .0.y y p f { P = u C z W P D W _ L._ T *.l.W.t.L.h 9 = x Z W _ F ",
"O - f a Q _ _ ,.C ] 0.Q R ^ [ B.P C D f ^ [ s } B.P 7 C 2 y P t 7 f D D I h x g R [ Q #.s.M.J.b. .f O u x B R _ "
};
