/* XPM */
static char *result[] = {
/* columns rows colors chars-per-pixel */
"56 56 245 2 ",
"   c #291F1F",
".  c #36221D",
"X  c #3B241D",
"o  c #2A211F",
"O  c #2B2423",
"+  c #342423",
"@  c #3C2522",
"#  c #352A2A",
"$  c #3B2C2D",
"%  c #362827",
"&  c #3D312C",
"*  c #3B3233",
"=  c #302631",
"-  c #1F1B19",
";  c #452A24",
":  c #492C28",
">  c #4B322D",
",  c #54332B",
"<  c #5A382D",
"1  c #432F32",
"2  c #453233",
"3  c #4A3839",
"4  c #533A3B",
"5  c #5D3D3B",
"6  c #563836",
"7  c #512E2E",
"8  c #633D33",
"9  c #623E3C",
"0  c #683C38",
"q  c #6C3E33",
"w  c #41271F",
"e  c #4A423C",
"r  c #59443D",
"t  c #654136",
"y  c #6C4335",
"u  c #64423D",
"i  c #6A453D",
"p  c #74453B",
"a  c #74493A",
"s  c #7A4C3D",
"d  c #774237",
"f  c #79523F",
"g  c #583D42",
"h  c #6A3F46",
"j  c #584647",
"k  c #504B4E",
"l  c #654342",
"z  c #6B4544",
"x  c #6D4943",
"c  c #694949",
"v  c #744A44",
"b  c #7C4C43",
"n  c #744B4A",
"m  c #7B4C4B",
"M  c #784647",
"N  c #7C534C",
"B  c #785346",
"V  c #675B59",
"C  c #7C5453",
"Z  c #7A5957",
"A  c #734E51",
"S  c #7A645B",
"D  c #756767",
"F  c #7A7373",
"G  c #64666E",
"H  c #5A606B",
"J  c #82523F",
"K  c #834C44",
"L  c #854E4B",
"P  c #865443",
"I  c #82544C",
"U  c #8A544B",
"Y  c #855A4C",
"T  c #895A4C",
"R  c #885745",
"E  c #94584C",
"W  c #835453",
"Q  c #845A54",
"!  c #8C5D53",
"~  c #855B5A",
"^  c #8C5D5C",
"/  c #875558",
"(  c #935B53",
")  c #965955",
"_  c #864D53",
"`  c #97634E",
"'  c #88645B",
"]  c #936354",
"[  c #93635C",
"{  c #9B655B",
"}  c #9D6B5C",
"|  c #996657",
" . c #8E6A55",
".. c #A46B5C",
"X. c #A36958",
"o. c #A5725B",
"O. c #935B62",
"+. c #8A6865",
"@. c #956B64",
"#. c #9C6C63",
"$. c #9C6B6B",
"%. c #976665",
"&. c #8A7468",
"*. c #9D736C",
"=. c #9A7667",
"-. c #9A6D72",
";. c #936C75",
":. c #897B78",
">. c #997873",
",. c #846F72",
"<. c #A36D63",
"1. c #A96D64",
"2. c #A16D6C",
"3. c #A86968",
"4. c #A37264",
"5. c #AB7466",
"6. c #A4746B",
"7. c #AB7469",
"8. c #AB796C",
"9. c #A67B69",
"0. c #B37B6C",
"q. c #B57867",
"w. c #A16E73",
"e. c #A37C75",
"r. c #AC7B74",
"t. c #A67779",
"y. c #B47C72",
"u. c #B87C76",
"i. c #B26E6A",
"p. c #C17A74",
"a. c #9A847C",
"s. c #968271",
"d. c #A68569",
"f. c #BB846C",
"g. c #A88978",
"h. c #B48474",
"j. c #BC8475",
"k. c #BD8C7C",
"l. c #B88779",
"z. c #AC917C",
"x. c #B4967C",
"c. c #B8947A",
"v. c #C2856E",
"b. c #C48B7C",
"n. c #C58975",
"m. c #C5937C",
"M. c #606E83",
"N. c #A97E83",
"B. c #B27B83",
"V. c #9F7981",
"C. c #9B8B86",
"Z. c #95908F",
"A. c #AA8284",
"S. c #BC8B83",
"D. c #B58785",
"F. c #A8948B",
"G. c #BC9484",
"H. c #B89986",
"J. c #A89A94",
"K. c #BA9A92",
"L. c #B88E92",
"P. c #BEA289",
"I. c #B7A399",
"U. c #A8A19B",
"Y. c #919BA7",
"T. c #B7AAA4",
"R. c #BABABA",
"E. c #B0AEAB",
"W. c #9FA2A9",
"Q. c #C68B83",
"!. c #C49483",
"~. c #CC958B",
"^. c #C8988A",
"/. c #D39B8B",
"(. c #D29987",
"). c #CA9995",
"_. c #D39B92",
"`. c #D49C97",
"'. c #C3A48C",
"]. c #C5A88C",
"[. c #D4A28D",
"{. c #C3A493",
"}. c #CCA293",
"|. c #CAAD9A",
" X c #C7A997",
".X c #D4A293",
"XX c #DBA694",
"oX c #D6A89A",
"OX c #CCB29C",
"+X c #CCB097",
"@X c #D5B49C",
"#X c #E2B29C",
"$X c #C3A9A1",
"%X c #DBA9A3",
"&X c #C8B4A8",
"*X c #D3B5A3",
"=X c #DABBAB",
"-X c #D8B9A7",
";X c #C5BEB9",
":X c #D7BDB0",
">X c #E2ACA6",
",X c #E2B4A6",
"<X c #E8B8AB",
"1X c #EBBAB5",
"2X c #F2BEBC",
"3X c #DCC2AC",
"4X c #D6C2AF",
"5X c #DCC3B3",
"6X c #DBC7B9",
"7X c #C7C3BC",
"8X c #E3CCBC",
"9X c #E3C7B6",
"0X c #F5C4BA",
"qX c #EBCEB9",
"wX c #AAB6C2",
"eX c #BEC3C8",
"rX c #C9CAC8",
"tX c #CFD4D8",
"yX c #D7D3CD",
"uX c #E7CEC1",
"iX c #F7C9C4",
"pX c #E5D2C5",
"aX c #EAD3C5",
"sX c #E6D5CB",
"dX c #EBD5C9",
"fX c #ECD9CC",
"gX c #E7DACD",
"hX c #F5D6CC",
"jX c #E5DBD3",
"kX c #EDDDD3",
"lX c #F2DED3",
"zX c #FAD4D1",
"xX c #EEE1D6",
"cX c #EEE3DB",
"vX c #E9E4DC",
"bX c #F3E4DB",
"nX c #F2E4D9",
"mX c #E7E9E4",
"MX c #F5ECE4",
"NX c #F5EBE5",
"BX c #F5F2ED",
"VX c #F9F2EC",
"CX c #F5F6F4",
"ZX c #FAF8F4",
"AX c None",
/* pixels */
"AXAXAXAXAXAXAXAXAXAXAXAXAXAXAXAXAXAXAXAXAXAXAXAXAXg.g.x.x.d.d.x.x.g.AXAXAXAXAXAXAXAXAXAXAXAXAXAXAXAXAXAXAXAXAXAX",
"AXAXAXAXAXAXAXAXAXAXAXAXAXAXAXAXAXAXAXAXH.P.+X+X+Xc.P.@X4X+X].+X3XOXOXx.z.s.s.S AXAXAXAXAXAXAXAXAXAXAXAXAXAXAXAX",
"AXAXAXAXAXAXAXAXAXAXAXAXAXAXAXAXAXAXOX+X@X6X6X6X4XOX8XsXqX3X@X+X3XqX4X+XP.z.P.P.gXrXE.AXAXAXAXAXAXAXAXAXAXAXAXAX",
"AXAXAXAXAXAXAXAXAXAXAXAXAXAXAXOX4X6X8X6XgXxXqXfX8X*X8X5X*X@X+X+X3X9X3X@X4X4X4X4XgXBXmXrXAXAXAXAXAXAXAXAXAXAXAXAX",
"AXAXAXAXAXAXAXAXAXAXAXAXP.+X+XOX3X8XgXgXMXBXkXpX5X=X=X-X-X-X@X@X5XfX8X3XqXfXjXpXpXvXCXBXtXR.AXAXAXAXAXAXAXAXAXAX",
"AXAXAXAXAXAXAXAXAXc.x.x.P.].|.OX4XpXgXjXBXBXkXaX6X:X6X8X9X9X3X3X8XgXaXqXfXbXMXNXMXBXCXmX7XU.Z.G AXAXAXAXAXAXAXAX",
"AXAXAXAXAXAXAX^.].P.P.x.P.].-X4X8XxXnXxXMXMXkXfXaXaXqXfXkXqXaXqXpXkXgXfXxXMXCXCXZXZXCXCXmXrXU.G AXAXAXAXAXAXAXAX",
"AXAXAXAXAXAXAXH.x.c.x.].].|.*X9XfXxXMXnXMXBXnXlXlXlXxXbXbXxXlXnXgXjXjXxXvXvXCXCXCXCXmXmXyXR.U.J.F AXAXAXAXAXAXAX",
"AXAXAXAXAXAX XH.d.d.z.].+X*X3X8XlXMXNXNXNXVXVXlXbXNXbXbXbXvXcXNXMXkXgXsXjXmXjXjXvXvXjX7XT.F.C.J.R.eXwXAXAXAXAXAX",
"AXAXAXAXAXAXH.x.d.d.z.].OX-X3XqXlXbXVXVXNXNXNXNXNXMXMXbXbXbXkXxXBXBXkXsXjX:X:X6X7X&XT.I.s.:.F F eXtXtXY.AXAXAXAX",
"AXAXAXAXAXAXz.z.z.z.x.].OX=X9XqXlXbXNXVXNXNXNXbXNXNXMXMXbXbXkXkXxXVXNXkXsXpX;X:X XI.I.F.&.S S s.R.rXtXY.M.AXAXAX",
"AXAXAXAXAXAXx.g.g.P.P.|.:X9X8XfXbXVXZXZXVXVXNXbXNXNXNXbXnXMXbXnXsXkXnXkXpXuX:X$X*XT.F.H.a.&.+.a.R.tXtXW.M.AXAXAX",
"AXAXAXAXAX=.d.d.g.I.{.I.*X8XbXMXZXZXZXVXVXNXNXVXNXkXlXbXbXdXdXdXdX8X5X:X6X&X|.K.P.I.F.A.>.s.C.J.R.R.R.Y.G AXAXAX",
"AXAXAXAXAX .&.g.F. X{.P.|.6XcXNXVXZXVXVXVXBXlXlXlXhXhXdXdXuX9X:X=X6X-X X^.P.H.H.z.g.>.>.*.&.a.I.E.U.Z.Z.G AXAXAX",
"AXAXAXAXT.J.z.d.g.K.'.!.^.=XkXlXnXnXnXhXlXlXlXsXhXuX8X9X:X:XuX*X'.m.G.c.G.h.8.=.d.e.e.*.>.&.>.C.Z.C.F F H AXAXAX",
"AXAXAXAXU.I.J.F.^.H.G.c.c.^.@X=X,X,X<X,X>X=X=X<X<X=XoX}..X). X%X].h.h.f.j.j.o.` Y ] [ *.>.s.a.:.F D G V k AXAXAX",
"AXAXAXAXZ.F.T.&X$XG.m.c.f.v.n.m.(.[.XXXX/./.[.XXXXXX!.m.m.m.!.}.j.0.9.f.f.f.` J J R  .9.>.>.J.D V V V k k AXAXAX",
"AXAXAXAXAXJ.I.T.$XG.m.m.v.v.f.n.(.XXXXXXXX/./.(.(.m.m.n.f.q.h.f.h.8.o.o.q.f.o.R J R ` @.&.s.J.D r j e e g k AXAX",
"AXAXAXAXAXJ.F.I.I.G.[.[.m.m.b.b.m.[.XX(.(.(.m.n.n.v.n.n.n.m.}.}.^.c.4.} ` o.o.R R R  .[ &.,.Z.S e e e e * AXAXAX",
"AXAXAXAXC.C.F.I.K.^.@X@X*X+X|.oX%X.X(.m.m.n.p.v.b.(.(./.|.G.K.).g.d.=.=.d.=.o.Y Y Y Y ' S S s.V & & & 3 O AXAXAX",
"AXAXAXAXC.F.J.F.H.oX9X5X&X&X|.I.{.|.^.k.j.j.p.v.~.}.oX).D.$.Q x 0 y b Q  .=.&.B f B N N Z V F j O X & o - AXAXAX",
"AXAXAXAXa.a.F &.g.=X3X{.z.*.e.e.A.D.!.S.b.k.q.p.n.!.^.D.3.L M M n m n m C ' Y B f B R Y v V D e O . o o - O AXAX",
"AXAXAXAX&.' B ' g.-X Xl.t.6.t.t.N.A.D.D.D.Q.0.q.i.y.u.$.O./ ~ ~ / m M m C Q N B Y  .B B i j V 3 # % O O O AXAXAX",
"AXAXAXAX:.' Q ' z.-XG.A.B.-.$.-.e.A.>.t.r.u.0.5.1.#.^ ~ C ~ +./ / ^ / x x ' Z x B B f Y i 6 j 2 & % % % g AXAXAX",
"AXAXAXAXAXC.' +.H.-XD.A.$.$.N.V.-.-.-.+.O.6.D.).j.) M 9 z Z C O.-.+.C A h C C B B a R ` t 6 j # # & $ & # AXAXAX",
"AXAXAXAXAXAX=. .S.@Xd.6.^ C Z g = 1 c C z ;.%X2X%X^ l 7 7 z A ~ j $ 1 g h z Q C i a f y r r j $ & & & % # * AXAX",
"AXAXAXAXAXAX>.@.G..Xh.4.g.N.A.N.;.-.%.;.-.D.1X2X<Xy.Q n n / ;.B.A.A.A.-.! ^ #.Q i y y y y u 3 * * 3 2 > 2 * AXAX",
"AXAXAXAXAXAX>.@.c.@X@Xh.A.D.L.L.A.B.w.t.D.).2XiX`.i...<.3.2.-.-.$.$.@.] #.5.{ ]  .R a y i r 2 1 & 2 e > g g AXAX",
"AXAXAXAXAXAXAX*.h.@X0X[.Q.r.2.w.t.t.B.D.).).2X2X_...0.0.<.7.u.w.%...7.u.v.q.o.X.X.` f a 9 6 2 1 g 1 3 g 3 AXAXAX",
"AXAXAXAXAXAXAXt.0.#X0X<X%XXX!.S.Q.L.S.l.Q.~.1X2X~.X...o.X.3.S.~.)._._..X(.n.v.q.| ` s y 0 5 3 2 3 7 g c 3 AXAXAX",
"AXAXAXAXAXAXAXe.5.XX0X0XiXiX2X1X%X).Q.u.u.oXzXiX_...E ( ( i.Q.`.%X>X>X>XXXm.v.q.` J y y 8 6 1 g g 7 6 A g AXAXAX",
"AXAXAXAXAXAXAX>.d.[.0X0XhXzXzX2X>X_.j.1.n.<XzXiX>Xb.] d d ) u.~.oX>X>XXX>X(.v.o.` s < < 8 , 7 6 g g h c j AXAXAX",
"AXAXAXAXAXAXAXA.D.}.1X0XiXiX0X1XXXQ.i.X.(.0XiXiX0XQ.X.} s q ) u.Q._./.~._.b.i.` J J < < < , : 6 A A c c AXAXAXAX",
"AXAXAXAXAXAXAXAXI.^.XX<X<X1X>XXXQ.p.) i.<X2X<X1X1Xn.1.0.0.M K E i.p.j.p.y.1.E E J q t < < , : c ~ +.A g AXAXAXAX",
"AXAXAXAXAXAXAXAXL.k.^.(.(._.~.Q.i.) E <.0.~.b.b.i.b p M M L { ) d { 1.1.X.U K p q q y y < 7 ; C ~ ~ l AXAXAXAXAX",
"AXAXAXAXAXAXAXAXN.e.5.0.u.u.u.i.) E Q.Q.K K ( ! b 0 0 6 0 _ 3.%.) q d U E L J a q 8 8 y < ; ; c I 5 + AXAXAXAXAX",
"AXAXAXAXAXAXAXAXAXA.#.4.1.1.E E <.u.%X%X%.m C _ m x n n n %.<.#.[ ] I q d U R R a t t 8 7 @ O @ ; AXAXAXAXAXAXAX",
"AXAXAXAXAXAXAXAXAXAX=.4.1.) P #.r.S.=X%X^.t.O.) ~ W W / ^ %.#./ I n B b p T | | a t t 6 : @ + = AXAXAXAXAXAXAXAX",
"AXAXAXAXAXAXAXAXAXAXs.8.8.<.} o.#.#.D.).^.B.w.O./ L W _ / W M 0 9 M M b ] | | T a i 0 , ; @ = = AXAXAXAXAXAXAXAX",
"AXAXAXAXAXAXAXAXAXAXa.6.y.h.h.9.! Y ^ %.$.w.w.O.O._ h m / W A m W ! ! } 5.} | R a y 8 : @ . $ AXAXAXAXAXAXAXAXAX",
"AXAXAXAXAXAXAXAXAXAXAX@.9.h.l.l.5.<.<.2.t.D.D.B.B.t.t.w.^ I I I I ! ] 5.8.e.} ! s y < ; X . % AXAXAXAXAXAXAXAXAX",
"AXAXAXAXAXAXAXAXAXAXAXs.=.8.r.y.8.5.} } <.6.r.t.w.O.^ m b M p b U ] } e.9.4.} T a 8 : w . X % AXAXAXAXAXAXAXAXAX",
"AXAXAXAXAXAXAXAXAXAXAXAX[ =.6.8.0.8.<.{ { ) E L K L K M s p b U ] } } #.} } ] N 8 < ; X . 1 $ AXAXAXAXAXAXAXAXAX",
"AXAXAXAXAXAXAXAXAXAXAXAXZ [ #.8.8.8.8.5.3.| q.u.i.i.3.E K K ( 2.4.[ ] ] ] ] T v < , w . X $ AXAXAXAXAXAXAXAXAXAX",
"AXAXAXAXAXAXAXAXAXAXAXAXAXQ #.9.8.5.k.(.p.i.p.p.i.3.) K b U <.8.8.T Y ! Y [ Y i < ; . . + 3 AXAXAXAXAXAXAXAXAXAX",
"AXAXAXAXAXAXAXAXAXAXAXAXAXAX[ e.e.#.^.,X_.p.i.i.3.) ) L K ( 8.0.<.N B N Y  .v t 7 X . . * AXAXAXAXAXAXAXAXAXAXAX",
"AXAXAXAXAXAXAXAXAXAXAXAXAXAXZ @.*.#.Q.`.(.u.O.3.3.) E L L { <.4.( i x N Q N i 6 ; . + + AXAXAXAXAXAXAXAXAXAXAXAX",
"AXAXAXAXAXAXAXAXAXAXAXAXAXAXAXZ [ %.@.u.B.i.3.) O._ M _ / [ %.! v r x B B i < , X . % * AXAXAXAXAXAXAXAXAXAXAXAX",
"AXAXAXAXAXAXAXAXAXAXAXAXAXAXAXAXQ ' ^ ^ $.2.^ _ _ m m ^ O.W N v t 9 l u i 6 , : ; + AXAXAXAXAXAXAXAXAXAXAXAXAXAX",
"AXAXAXAXAXAXAXAXAXAXAXAXAXAXAXAXAXZ Q Q / ^ O.~ C m W m m n x i u u u l 5 6 > : % AXAXAXAXAXAXAXAXAXAXAXAXAXAXAX",
"AXAXAXAXAXAXAXAXAXAXAXAXAXAXAXAXAXAX' Z C Q Q Q N N B x i i z l u r u u 5 3 2 2 AXAXAXAXAXAXAXAXAXAXAXAXAXAXAXAX",
"AXAXAXAXAXAXAXAXAXAXAXAXAXAXAXAXAXAXAX,.Z Q I m n z z u 9 u u l z l g 9 4 3 k AXAXAXAXAXAXAXAXAXAXAXAXAXAXAXAXAX",
"AXAXAXAXAXAXAXAXAXAXAXAXAXAXAXAXAXAXAXAX:.+.C n n z h 5 5 9 h z z l g g j AXAXAXAXAXAXAXAXAXAXAXAXAXAXAXAXAXAXAX",
"AXAXAXAXAXAXAXAXAXAXAXAXAXAXAXAXAXAXAXAXAXAXD n M c l h 5 h r l g j j AXAXAXAXAXAXAXAXAXAXAXAXAXAXAXAXAXAXAXAXAX",
"AXAXAXAXAXAXAXAXAXAXAXAXAXAXAXAXAXAXAXAXAXAXAXD V c z g l l l j AXAXAXAXAXAXAXAXAXAXAXAXAXAXAXAXAXAXAXAXAXAXAXAX",
"AXAXAXAXAXAXAXAXAXAXAXAXAXAXAXAXAXAXAXAXAXAXAXAXAXAXj 3 g 3 AXAXAXAXAXAXAXAXAXAXAXAXAXAXAXAXAXAXAXAXAXAXAXAXAXAX"
};
