/* XPM */
static char *_d7002ee246243dd8a3c734c9a1e1f4cjKTZah2u2BU48HXk[] = {
/* columns rows colors chars-per-pixel */
"56 56 244 2 ",
"   c #040404",
".  c #0C0201",
"X  c #040B04",
"o  c #0B0A05",
"O  c #03060A",
"+  c #0A050A",
"@  c #040B0A",
"#  c #0B0B0B",
"$  c #140100",
"%  c #1B0201",
"&  c #140B02",
"*  c #1D0C01",
"=  c #120E0C",
"-  c #1C0D0C",
";  c #10070C",
":  c #0C120C",
">  c #071309",
",  c #1B1301",
"<  c #13130D",
"1  c #1C130C",
"2  c #181706",
"3  c #0D0D12",
"4  c #0B0A14",
"5  c #120E14",
"6  c #160E19",
"7  c #0D1212",
"8  c #071212",
"9  c #131313",
"0  c #1A1514",
"q  c #151A14",
"w  c #1A1A15",
"e  c #15141A",
"r  c #1A161B",
"t  c #161B1B",
"y  c #1B1B1B",
"u  c #230300",
"i  c #250C00",
"p  c #2B0702",
"a  c #370600",
"s  c #231403",
"d  c #2B1400",
"f  c #271B08",
"g  c #3B1C01",
"h  c #381701",
"j  c #241C14",
"k  c #231D1C",
"l  c #281A17",
"z  c #371B12",
"x  c #1C211D",
"c  c #1B2617",
"v  c #1F301D",
"b  c #3B2406",
"n  c #22221E",
"m  c #2B241B",
"M  c #272718",
"N  c #372818",
"B  c #312D13",
"V  c #1D1D21",
"C  c #191623",
"Z  c #0F1C2C",
"A  c #231D23",
"S  c #221D2B",
"D  c #1D2323",
"F  c #1E232B",
"G  c #182722",
"H  c #1F293E",
"J  c #232323",
"K  c #2B2524",
"L  c #232B24",
"P  c #2B2925",
"I  c #24252A",
"U  c #2B252C",
"Y  c #252B2C",
"T  c #2B2B2B",
"R  c #322D2C",
"E  c #372C24",
"W  c #2B3429",
"Q  c #32322D",
"!  c #3B332A",
"~  c #39372A",
"^  c #2C2C33",
"/  c #282834",
"(  c #312C32",
")  c #392E37",
"_  c #2C3233",
"`  c #2C3538",
"'  c #333333",
"]  c #3A3634",
"[  c #3B3A36",
"{  c #353439",
"}  c #35393B",
"|  c #3C3B3C",
" . c #39353C",
".. c #461902",
"X. c #591E00",
"o. c #470A00",
"O. c #671D00",
"+. c #472804",
"@. c #572704",
"#. c #46320A",
"$. c #5B3506",
"%. c #4A3417",
"&. c #503218",
"*. c #632900",
"=. c #693606",
"-. c #783D00",
";. c #693817",
":. c #792E00",
">. c #462923",
",. c #483A28",
"<. c #583A2A",
"1. c #433D3C",
"2. c #453935",
"3. c #503635",
"4. c #384236",
"5. c #594419",
"6. c #6B4409",
"7. c #764907",
"8. c #674518",
"9. c #794418",
"0. c #7B5318",
"q. c #6A5515",
"w. c #554327",
"e. c #43413E",
"r. c #4A453A",
"t. c #554639",
"y. c #534A30",
"u. c #6B4828",
"i. c #764A25",
"p. c #7B5424",
"a. c #675539",
"s. c #7B5431",
"d. c #6A502D",
"f. c #79642E",
"g. c #3B3A44",
"h. c #2D3345",
"j. c #453D46",
"k. c #573E41",
"l. c #3D4344",
"z. c #3E4652",
"x. c #444444",
"c. c #46464B",
"v. c #4A454B",
"b. c #4B4B4B",
"n. c #474746",
"m. c #524A47",
"M. c #56554D",
"N. c #4B4A55",
"B. c #544F56",
"V. c #535453",
"C. c #54565B",
"Z. c #5C5B5C",
"A. c #585855",
"S. c #4E5251",
"D. c #6A5747",
"F. c #785C47",
"G. c #625C53",
"H. c #634D42",
"J. c #5B615C",
"K. c #6C6749",
"L. c #78664A",
"P. c #68655D",
"I. c #7C6756",
"U. c #5B5864",
"Y. c #655D67",
"T. c #5E6264",
"R. c #646364",
"E. c #6D6C6C",
"W. c #666668",
"Q. c #687265",
"!. c #767676",
"~. c #72706E",
"^. c #863404",
"/. c #984505",
"(. c #955807",
"). c #884B14",
"_. c #8B540E",
"`. c #AB5510",
"'. c #996814",
"]. c #AD6B17",
"[. c #BA7617",
"{. c #B66509",
"}. c #875828",
"|. c #945D25",
" X c #8B532D",
".X c #96672B",
"XX c #966B38",
"oX c #8F6C33",
"OX c #A7692D",
"+X c #AA7524",
"@X c #AE7336",
"#X c #C17219",
"$X c #C97728",
"%X c #966B48",
"&X c #967648",
"*X c #8A6F57",
"=X c #917456",
"-X c #AB7849",
";X c #8C7866",
":X c #875D44",
">X c #BA8229",
",X c #B98437",
"<X c #AA8A33",
"1X c #D78D1E",
"2X c #CB8B31",
"3X c #E49032",
"4X c #EDAA35",
"5X c #DA9325",
"6X c #9A8259",
"7X c #A78346",
"8X c #B4894F",
"9X c #95886E",
"0X c #B59967",
"qX c #B09576",
"wX c #B7A277",
"eX c #C79445",
"rX c #CE9048",
"tX c #DCA546",
"yX c #D3AE53",
"uX c #EDB64C",
"iX c #C7986C",
"pX c #CEAE71",
"aX c #F39450",
"sX c #EEC750",
"dX c #FAD778",
"fX c #E6C775",
"gX c #E9D272",
"hX c #737A80",
"jX c #817C80",
"kX c #878A88",
"lX c #989590",
"zX c #BBAC84",
"xX c #CDB38B",
"cX c #F0D495",
"vX c #FEE887",
"bX c #FFF08E",
"nX c #D5C6A2",
"mX c #E4D2A6",
"MX c #F2D9AC",
"NX c #FCE7A9",
"BX c #FDE6B7",
"VX c #FFF7AD",
"CX c #D8C59B",
"ZX c #FFF7C7",
/* pixels */
"              + + #   : + 9 + o   o = 1 < o < < <   :   t @ 8 X X > < > 0 o     o < # # q #   # + @ + +         ",
"    + +     + #       q 9 #   +   < # # # o < q < # #   9 # 7 : : : :   q o + #   .   + 7 +   +     # #     +   ",
"    +     + # + +   + # : + # q # y 3 + 3 9 q 9 y y 9 # 9 e e t 3 5 3 O e e y r 3 + + # 9 : # #     # +     +   ",
"  + +     # # + # + #   9 # y y # t 3 # r V e 4 3 q # + # y 9 9 6 C C 4 e e e + 5 + # 3 : # @       + +     +   ",
"  + +   + 9 9 # # + 9 9 y # 9 3 e e 4 4 y J e 7 3 k 9 9 0 K k 0 C 6 C C S 5 4 + r 5 5 e 9 : @   + + # # + + +   ",
"+ +     + 9 9 : y + + q y +   7 D 7 3 3 9 y y y o y < o o j 1 . r   5 A U # 5 A A y e y y t 7 7 9 # # 9 9 + +   ",
"    + + + # 9 9 y 9 + 9 # # # q x X 7 t 9 < < n < K n = = n j < n < y K n o < y r q # # q 7 # e y # # q 9 + + # ",
"  + # : # + 9 y # y y q # y y q q   w T q o o w o J J # < P Q P w c W n 0 q n w w w # + 9 # # y J #   # #   # q ",
"+   9 9 + # # 9 9 q ' 9 y y   w < y w q w # n q q D # D l._ I x X W W L L x x L ' y + w y n + 5 T   9 #   q 9 + ",
"9       + 9 9 9   9 T q y J 9 # ' + q q 9  .| T #   7 l.Y 8 F F l.Y     @ D x t   n T J # =   # J + q 9   9 +   ",
"# + 9 : 9 y q # J 9 9 # T x.| ^ A 3 r e y c.U e c.g./ l.I F ` ` z.N./ F g.} 4 t T 3 # w =   # ] q + y t 9 y 9 + ",
"  9 x : + J J q y # q J T J J y I { { ^ ^ c.( 3 r j.I  .C.C.I 5 4 I ^ I c.C 7 J + J T = = P P = # + y q + 9 9 + ",
": 9 q     9 y J V.T 9 9 q y T | e e ^ y + J x.w P m.& . ! r.1 j & . 1 K 1.K e.J J o w n T q 9 9 y y A q   + + + ",
"#   9 q 9 9 9 r   y | x.T y # q   3 x.T # n m.M.& , f E ,.;X;Xa.*Xw.i * * f E 1 w 0 n   # T  .9 3 q J J y # +   ",
"+ + y J y y 9 q J J T J J T 9 y T Q e.~ <   f ,.K.xXMXxXwX0X0XxXMXNXMXmXCXzXa.N 2   n P { e I ^ # # 9 y q # # # ",
"y J Y 9   q J R x.J : X y g.T m.~ f , a.w.a.zXxX6X5.#.b d +.6.$.-.7.<X7XpXNXCXmXw., w = / V ` I } T q # +   q J ",
"q y t O # r 0 K   [ M v @ I 0 j ,.% a.=Xi.p.0.8.+.N f $ % @.*.^./.`.$X'.*.=.8XNXpXf.w.  C C.| o J 9 q + 9     y ",
"+ # O 8 V r = - . ' c c } I 2.H.d wXu.;.*.).@X_.+.i $ $ u &.=././.`.#X2XO.*.X.eXdXyXf.y.Y.Y.q < n T T # + + + + ",
"y D # t T V 0 + 1.T L 4.Q ! ,.;X=Xw.h a O.`.rX].7.h u $ p z $.=.OX/.`.3X$X`.:.[.5XtX<X+.* j.c.V 9 T T + +   #   ",
"T T w q L J U U ; # { x.E b *X=X&.h a a `.aX3X3X].@.u % % >.&.}.=.).$X[.5X{.{.1X1X4X2X.Xd.2.j./ y T J 9 q + y y ",
"r q q < q y U v.R { N.R ,.%X X$.+.p o.^.#X3X1X4X#X_.;.h >.>.<.L.<.s.|.>X[.3X[.2X4XsXuXeXs.u j D V b.x.T J # #   ",
"5   : q c 7 5 j.5 ) ) - 6Xp.;...i.;.-XOX`.$X1XuXrXrXiX*X3.N $ >.D.g &X@X'.+X,X+X>XuXuXtXi.u o X   | |   # J ' ' ",
"P r # q L x e U 5 - 2.I.8X}.o.X.;.$.}..X).OX_.@X0Xd f m m.2., B t.I.a.5.q.oX8.oX,X2X].2X-Xb X W q x.b.J T ' y 9 ",
"] T   # T } } U r & D.xX6...X.;.@.h s.g $...d #.K.o } I I V.r.G.P.r.2 f B , t.&.@X2X2X,XXXK.P.4.A.b.| y ' J   + ",
"= 9 y U _ L q w [ ,.b 0X0.@. X X..i N z z N w.K.4.c ` H / F V.[ U A.W ~ @ I Y.z =.eX(.'.p.f | h.3 q y J # y J # ",
"K y e e O : L ~ e.s pXyX_.).XX;.>.! m.v.1.] Q.Q.W G Z H h.C.Y.r 6 N.L 8 z.g.k.F.}.OX,X$.5.f y C.} T T ' J J J T ",
"P J S / e t 4.W 0 N cXyX+X8X=.o.<.- - 2.5 ( A.V N.U.U.U.U.B.m.! r R.U./ j.3.%X-X,XyX6.b * o + ( Z.T ' J y y 9 J ",
"o # S g.` L 4.W n s fXbX'.eX9.h D.l K = )  .U S j.g. .j.m.o & 0 ] ~.x.1.u ..iX_.eX8Xh i j ] 1.b.Z.y T J y y # y ",
"  # e / I q ` J.# ,.pXbXvX2XXXd ! U k q T V.e g./ U 1.R P.P ^   m.t.d 5.iX8X...X.X@.i % m 2.| N.U.+ 9 # # y T x.",
"n n e 9 y : G T.Z.s +.pXbXdX8X6XN K ~ M 4.M.A.b.x.e.~ 2 ~.M c M %.=XxX&X6.7.$.$...% d f E o ^ ^ c.' x.| | x.| y ",
"L x 9 = n q 8 c.e 1 &.<XsXdXVXNXzX9Xs , r.~.A.M.K.~ & f L., 2 d.vX<X$...}.8.d w., . ,.l M. .T.l.T Z.x.T ' | J   ",
"9 # r r K P D C.J m %.7X<XsXdXcXNXVXcXmXnX9Xa.K.L.qXnXmXmXBXZXfXyXeX.X$.d $ . & , 2.s j U Y.T.D q b.9 # T J y y ",
"3 9 9 K k K # E.T m s f.q.yXdXuXuXyXfXvXVXNXBXBXMXBXZXBXmXpX=.0.7X0.p % % % . . P e.0 1.U jXx.| ' ' T T | J + y ",
"e I ( 9 k j.| ~.c.  r.a.&X7.eX>XtXtXtX>X'._.6.+.#.%.b b p a @. XXXd g g g . * t.j n y | x.R.9 e.U x.x.| b.| y # ",
"Y #   o x.1.I 5 C.V.M.f &.oX..-.+X(.tXtXtX'.@.% & . .   . % p 8.8.%Xu.+.b & & ! K 1. .y J | ' ] x.V.' # y ' ' | ",
"_ t Q n T 0 y I C.{ y j %.+.8.p =.=.a /.+X8XoX+.* . .   & . $ +.;.h g i %.f & w n x. .+ T V.Z.J b.V.T # + = y ' ",
"L Y A.L # ' } C.` F t y E ,.&.u.=..X=.a u +.+.+.b d $ s d d %.d u % b N w.t.2.R Q ' ^ 3 Z.R.' ' ' b.T T y #   # ",
"t q q ' Q e.| { F ` V ` T - ,.;XoX$.+.%X@.s.:Xu.%X&Xp.8.$.8.;.h g d h I.D.9XlX~.V.W.R.g.b.J q T T x.q q y y # # ",
"8 q X S.R q ' C.O ` V I # T G.E i D.=Xs.%XXX}.=.@.p.XX|.OX@X(.OX=XL.D.E N r.] e.b.~.~.C.S.: n y b.V.y 9 q y 9 # ",
"8 @ x Q o K P E.C.4 C 4 @ W.c.# 1.2.d &.xX-X0X-X;...u o.*.|.@XeXu.N s m j M.M.J ' t e J !.b.R b.E.E.T J A y 9 q ",
"t T T # K n 0 ' kXR.R.C.c.T.} I J n w r.B E y.D.qX;XL.L.*Xb *XF.E m m j 2.!.e.n J t e L S.b.' J y b.x.q # T # 9 ",
"} V r y y n k R J r T W.~.l.T.T _ _ x.' L Q M M E kXm.1 0 1.!.lXG.E ! ~ K E.[ # q L } L y x.b.# q ' x.' q y 9   ",
"( 3 + r 9 k k K n.= # ' S.q W.V.  : n.w E ! m j 0 R.A.c.S.!.C.J ;XA.M.K x.kXV.t t q J | ' I T } J T ' J 9 # J J ",
"A A r V y J n Q m.r = n A.Q V.J.n.x.M.< M j Q r.Q b.kXhX!.g.^ V b.R.!.[ kXlXZ.x.y J q J ' } J } y ' ' | b.T ' ' ",
"U U U J I y T | Q Q < n R.V.' ' ` C.W.~.kXA.J.S.' B.E.{ b.7   } 9 J R.W.R.x.T J.x.J # T ( U V ' | x.' | b.J J q ",
"{ 5 e V V V x.x.Q ] y = x.W.9 V C ` t _ 4.G ` Y V.W. .A N.T.X q ' + ' kXy y J b.Z._ y | } # e A.c.T y y 9 + J + ",
"' q 3 D D Y c.l.t : J r ] E.^ { R ( k | e.L J J v.v.J k J E.K q T + J ~.w y n # ' n.x.A y ' v.x.9 + # T y y T y ",
"R | y D I Y F D 4.J n y y } C.v.j.A J R R J k S.| { T k J E.n.< y Y b.V.x.q T J x.q J y y v.R.y q y # q # # y ' ",
"= T | l.g.y J J T y y y | T y y ] q y S.9 ' b.T y | P y J b.V.T J ' J ' W.y T T y J J y J ' b.T y y y y y 9 + y ",
"9 y y J T y J J 9 J y T !.V.q + | T | W.J | b.y T T ' ' U J T J | ' q 9 Z.| J J T J J y y J ' | J 9     # y 9 9 ",
"y 9 q + 9 # # q J V.R.| + b.Z.9 # J T | J T J q y J ' | T T x.y T y + J V.V.J y J y y 9 q T T | ' J y 9 9 y 5 + ",
"+ + A q J T ' x.J # ' y + 9 x.b.J ' y J T T y y q y t | | | Z.y q +   T q x.( y 9 J J ' x.V.' ' q # q q # 9 9 9 ",
": + J 9 9 q 9 y y q J q y y + | Z.T q J T | T y J 9 9 x.| | | 9 y J q y   | V.' T ' y ' | ' J T T y J ' Q T q + ",
"9   y # # 9 # 9 9   T   y # q J | y y y T T J y 9 J ' T y | J + 9 y y T | ' x.T | b.J q 9 # q J | y # + 9 J L T ",
"#   q + + # # +   y y + y J q 9 y | | y ' J # J # ' | q q ' T 9   # 9 ' b.q q 9   T T #   + 9 # J J J y 9 9 + # ",
"+   y #     +   + y 9 q y # y J 9 ' x.y T J y y ' | + y ' # T T T ' J J + + y y q J | y q 9 # 9 # J J # + 9 # 9 "
};
