/* XPM */
static char *_54c22f7be4b4c7aa0cd825932032f7e24kTyzHCUmtlWuY7[] = {
/* columns rows colors chars-per-pixel */
"56 56 129 2 ",
"   c #573C27",
".  c #593C27",
"X  c #593D28",
"o  c #5D412B",
"O  c #5C4B2C",
"+  c #5C4331",
"@  c #5E5730",
"#  c #62442E",
"$  c #604E2F",
"%  c #644A31",
"&  c #6A4B32",
"*  c #704F35",
"=  c #665232",
"-  c #6B5135",
";  c #625B33",
":  c #67503F",
">  c #725137",
",  c #765439",
"<  c #79573B",
"1  c #76593A",
"2  c #7B593C",
"3  c #5D6E35",
"4  c #5E7136",
"5  c #5F7738",
"6  c #637337",
"7  c #657539",
"8  c #6D773D",
"9  c #657A39",
"0  c #6D7A3E",
"q  c #63554A",
"w  c #69574A",
"e  c #7A5C43",
"r  c #765E4B",
"t  c #6B6A47",
"y  c #737E43",
"u  c #6D655F",
"i  c #6A6765",
"p  c #6E6A67",
"a  c #6D6D6C",
"s  c #726A64",
"d  c #726D69",
"f  c #815D3F",
"g  c #825E40",
"h  c #866143",
"j  c #8A6344",
"k  c #84654C",
"l  c #8F6A4D",
"z  c #906747",
"x  c #906847",
"c  c #966C4A",
"v  c #996E4C",
"b  c #9B704D",
"n  c #8C6F57",
"m  c #816D5C",
"M  c #957052",
"N  c #997152",
"B  c #A27551",
"V  c #A77854",
"C  c #A97A55",
"Z  c #AF7E58",
"A  c #B07F59",
"S  c #827163",
"D  c #917B6A",
"F  c #867E78",
"G  c #5F8B3D",
"H  c #5F953F",
"J  c #69933F",
"K  c #5F9740",
"L  c #5F9A41",
"P  c #748244",
"I  c #619740",
"U  c #6C9342",
"Y  c #649C41",
"T  c #6A9D41",
"R  c #7B9D4D",
"E  c #5FA142",
"W  c #64A443",
"Q  c #6BA444",
"!  c #6BAB45",
"~  c #6FAE49",
"^  c #71A546",
"/  c #72AD4A",
"(  c #73B24A",
")  c #76B54C",
"_  c #77B64D",
"`  c #78B24E",
"'  c #7CB04E",
"]  c #7AB74F",
"[  c #79B352",
"{  c #7AB650",
"}  c #7CB553",
"|  c #7DB753",
" . c #7BB850",
".. c #7DB852",
"X. c #7DB952",
"o. c #7FBB54",
"O. c #B4825B",
"+. c #BB875F",
"@. c #BC885F",
"#. c #80B250",
"$. c #81B452",
"%. c #82B652",
"&. c #83B654",
"*. c #80BB54",
"=. c #85B957",
"-. c #84BA57",
";. c #81BD55",
":. c #84BD57",
">. c #8AB35B",
",. c #89B45A",
"<. c #8BB65C",
"1. c #84BD58",
"2. c #88BC59",
"3. c #89BD5A",
"4. c #89817A",
"5. c #BC8860",
"6. c #89C05B",
"7. c #8BC05D",
"8. c #8CC25E",
"9. c #8CC45E",
"0. c #8FC360",
"q. c #8FC361",
"w. c #90C361",
"e. c #90C461",
"r. c #92C462",
"t. c #92C763",
"y. c #878481",
"u. c #8A8783",
"i. c #898B8B",
/* pixels */
") ) ) ) ) ] ) ) ( ( ~ ! W ! W ! W ! ~ ~ ! W E E W ~ ! ! X.-.o. .) ) ) ! ! ! ! W ! ! ! ! ! ! W W W H L H W ! ! ! ",
") ( ) ) ) ) ) ( ( ( ~ W W W ! W W ~ ~ ~ ~ W E E W ! ! ~ X.X.o. .) ] ) ! ! ! ! ! W ! ! ! ! W W W W H H H W ~ ~ ! ",
") ) ) ) ) ) ) ) ( ( ~ Q ! W ! Q ! ! ( ~ ~ W E E W ! ! ~  .o.o. .) ) ) ! ! ! Q W ! ! W ! ! W W W E H H H Q ! ! ! ",
"( ) ( ( ( ( ( ] ] ] ' / / / / / ~ J 6 9 9 W W W ! ! W ! ~ ~ /  .1.1.o.X.[ X.' ! ! ! ! W Q W ! W W W W W Q ! ~ ! ",
") ) ) ( ! ! ~ -.3.3.&.#.#.#.#.%.%.8 . . O T ! ! ! W W W W E E [ q.r.r.r.r.r.-.( ( ( W W W W ! ! ! W W ! ! ! ! ! ",
") ) ) ( ! ! ~ -.:.3.&.} #.#.%.%.%.8 . . O J ! W W W W W W E E [ r.w.r.r.r.r.;.( ( ( W W W ! ! ! ! ! ! W ! ! ! ! ",
") ] #.^ T J Q -.3.3.&.' ' ' #.] #.8 . o O T ! ! W Y J L W W W [ q.q.q.r.r.r.;.) ) ( Y J H W ! ! ! ! W ! Q T T T ",
"6.3.3.J $ O ; ,.w.q.| W Q Q ! ! ! 7 . . O Q / ~ 9 O + @ Q ( ~  .1.;.1.q.q.r.q.q.9.,.; O O 5 Y E E W W W 5 O O O ",
"7.7.7.y X X % >.r.r.| W W ! ! W Q 7 X X O Q ~ ( 6   X $ Q ( ( X.;.%.;.q.q.q.r.r.r.<.% X X 3 E L E E W W 4 . . . ",
"7.9.<.J X X O <.r.r.X.W W W ! ! ! 7 X X O Q ( ( 9 X X O ^ ) (  .;.;.;.r.r.r.r.t.r.<.O   X 3 E W E E W W 4 o . . ",
"y y y t q q w y P P y 4 3 9 Q ~ ~ 7 . X O 6 8 9 ; X X O Y ! ! U 0 0 P ' X. .R y P y - & & ; 3 3 3 3 3 3 ; & & & ",
". . . w a a i + X       . O ^ / ( 7 . X X . X X X X X O I E W 3 . X O T ~ ~ 6 X X # , 2 2 & . . o . .   & 2 2 < ",
"X X X q a a i + X X X X X O ^ ( ( 7 . X X X X X X X X O L E W 3 X X O Q ~ ! 6 . X X < 2 2 & X   . o . . & 1 2 2 ",
"# # # w d p i % # # # # # = T Q Q 7 # # # o o o o o o O G K K 3 X X O J T Q 6 + + + , 2 < & # # o o o . & < < 2 ",
"x x z g e e e j l z b A A V & O O , z j j 2 , , , , , > O O O o X X X O O O q i i u e < < h x j h #   . & 2 < 2 ",
"c c c j < < 2 x c c V 5.5.A # X . < v v c 2 2 2 2 2 e , o X X X o X X X X . q a a p e < < j v v x # . . & < 2 < ",
"v v v h 2 2 2 v c c C @.@.Z & X . < c c c 2 2 2 2 2 2 , X X X X . . X . X X q a a a e < < j c v j # X X & 2 < < ",
"j h h , & & - x c c B C C B * & & f c v z * & & & & & % X o X # & & & & & & : q q w 2 < 2 f j h h & & & g v v v ",
"< < 2 & X X # j c c c c c x 2 2 2 h c v z # X X X   X X X X o & 2 2 < < < 2 & . X X , 2 < 2 < 2 < 2 2 < v 5.+.+.",
"< < 2 & X X # x c v c v c c 2 < , h v v j # X X X X X X o X X & < 2 < < < 2 & . X o , 2 2 2 2 2 2 2 2 2 v @.+.+.",
"f f g & X X # j c c z c x z e e e k c c z $ X # # # # # # # % * 2 2 2 f f f , # # & 2 2 2 2 2 2 2 2 2 2 v O.+.+.",
"A O.O.g X X o 2 2 f 2 2 2 k 4.u.u.m 2 2 2 , , , z A A A Z Z A c < < f Z O.O.Z C Z C 2 < < h x c x 2 2 < j v v b ",
"@.@.5.j X X o , 2 < 2 2 2 e 4.i.i.S < < 2 < 2 < b 5.+.+.@.@.5.v 2 < f A @.@.+.+.+.O.g < < j c c c f < < j c c c ",
"@.@.5.j X X X , < < < < 2 e y.i.i.S < < < 2 2 < v 5.+.@.@.@.@.N 2 2 g A @.@.+.+.+.O.g < < h v c c 2 < < j c v c ",
"+.+.5.c & & & c v v v v v N D D D n j j j 2 < < j b v b C C Z g & & > B C C C C C B f < < g h g j g j h j c v c ",
"+.+.5.v < < g O.@.@.@.@.@.O.v c c c c v c 2 < < 2 2 , 2 z v v 2 . . # j c c c c v c 2 2 2 2 2 2 2 c v c v v v c ",
"+.5.5.v < < g O.@.@.@.@.@.+.v c c v c c x 2 < < 2 2 2 f c v v , . . # z c c v c c x 2 2 2 2 2 , 2 c v c v v c v ",
"O.O.O.v < 2 f Z O.O.O.O.O.A v c x c c c c f < < < , , < z z c < o # & x v c c c c x 2 < 2 2 2 2 2 z z z z x c x ",
"b v v j < 2 2 2 f f z v v c f 2 2 j c c c 2 2 2 * o X # < f 2 g z z z c v c j 2 2 2 2 2 2 2 2 2 2 # O # & f 2 2 ",
"v v v h < 2 2 2 < < j c v z f 2 2 j c v z f < 2 & . . o , < f g c v c c c v j < 2 2 2 2 2 2 2 2 , X X X & 2 2 2 ",
"v c v h 2 2 , 2 < < j v c c f , 2 g v c z f < 2 & X . o , 2 < g c c c c c v j < 2 2 2 < < < < 2 , X X   & < < < ",
"v c v z g h g & & & 2 j j f 2 2 2 < < 2 , & & & & & & & < < f g h j j j j j e 2 2 2 c v v v v v c * & & < h j j ",
"v v c v c v x #   . & 2 < < < < < & . X X X X X & 2 2 2 2 2 2 2 , < < < < < 2 < < g O.@.+.+.@.@.O.g 2 2 j c v c ",
"c c c c v c x # . . % 2 < < 2 < < & X X X X X X & 2 2 2 2 2 2 2 2 < 2 < < < 2 2 < g O.@.+.+.+.@.O.g < < j c c c ",
"c c c v v c x # o o & g g 2 f f f * X o o # # # > 2 2 2 < , , 2 f f g e f f f 2 < g Z O.O.O.O.+.A k e e h c c c ",
"v v c c c v c < , , c O.O.Z O.O.O.c , , 2 C A A B c c j # o X j O.O.O.O.O.O.c < < 2 v b b b v v N F u.y.S 2 2 2 ",
"c v v c v c c 2 2 , b @.@.+.+.+.@.v < < f O.5.5.C c v j # X X h @.@.+.+.+.@.b < , f c c v c c v M u.i.i.S < < < ",
"c c c v v c c 2 2 2 v @.@.@.+.+.@.v < < f O.@.5.C c v j # X X h @.+.@.@.+.@.v < 2 2 c c v c v c M u.i.i.S < 2 2 ",
"c c c j h j h < , 2 x C C C C C C B v v v b v v v c c l w q q k C C C C V C z < 2 < 2 2 , h c c c S S S r & & & ",
"v c v j < < < < 2 < h c c c c c v C @.5.O.f < < j c c c d a a m c c c c c c j < 2 , X . . , v v c 2 < < & X X X ",
"c v c j < 2 2 < , 2 j c c v c v c C @.5.O.g 2 2 h v c M d a p m c v c c c c g < 2 , # . . < v c c 2 < < & . X X ",
"x x c j , , , 2 2 2 j c x c c c c V O.O.A j f f h x c x s p i m c z c c c c j 2 2 , # X X < c c c g f f , # # # ",
"2 f 2 - o o # j c x j 2 2 f c c v v v v B A A A v 2 2 e e e e e 2 f 2 e 2 f 2 2 2 < , , , < 2 2 g Z A A A Z Z Z ",
"< < < & X X # z v c h 2 < 2 c c c c v c v O.5.5.v 2 2 , 2 2 2 2 < < , 2 2 2 2 2 2 < 2 2 2 2 < < f O.5.@.+.@.+.@.",
"< < 2 & . . # x c v h < < 2 c v c c v c v O.@.@.v 2 2 2 2 2 2 2 2 < 2 < 2 2 2 2 2 2 2 < 2 < < < g O.5.@.5.5.+.@.",
"< < < < , , , h j j f < 2 < < < < f j j z V C C v h j h 2 2 2 * & & * c v v g & & & < 2 < j v v v V Z V V V V Z ",
"< < < j v v c 2 < < < 2 2 , o . X & 2 < 2 c c c c c c c 2 2 2 & X X # Z 5.5.h X . X , 2 < v @.@.O.v c c c c c c ",
"< < < h c v c 2 2 < 2 < 2 , o . . & 2 < 2 c c v c c c c 2 < 2 & X X # Z 5.5.j X X o , 2 2 v @.+.@.v c c v c v c ",
"2 2 2 j c c x < < , 2 f f 2 # X o & , , < x c x z z z z e 2 2 & o o & V O.O.j X X # , 2 2 c A O.A v c c c c c c ",
"c c x j 2 2 < # o X j O.O.C 2 , , & o o # < f 2 * # # # , 2 2 , , , , f f f 2 < > , 2 2 < e g g g c v c v c c v ",
"c c v h < < , o . . j @.@.A g 2 2 & X X o , 2 2 & X . o , 2 2 2 2 2 2 < < < 2 2 2 2 2 2 2 2 2 < 2 x v c c c v c ",
"v c v j 2 2 , o .   j +.+.O.g < 2 & X X o , < 2 & X X o , 2 2 < < < < < 2 2 2 2 2 2 2 2 2 , < < f c c v v v v c ",
"j j j < & & - j h h B +.+.O.g < 2 * & & - c v v 2 X X o , 2 2 h v v c f < 2 * & & & 2 2 2 j v v c j j h g , 2 < ",
"< < < & . . # Z +.+.+.+.+.O.g < 2 < 2 2 g O.5.5.j X X o , 2 2 v 5.5.O.g < 2 & X X X , 2 2 v 5.@.O.g 2 2 & X . . ",
"< < 2 & . X # Z +.+.+.+.+.O.g < 2 2 2 < g O.@.@.j X X X , 2 2 v 5.5.A g < 2 & X X # , 2 < v @.+.A g 2 2 & X . X ",
"2 < 2 & X X # O.+.+.+.+.+.O.f < 2 2 2 < g O.@.@.z X X X , 2 , v @.+.A g 2 2 & X X X , 2 2 v @.+.O.g 2 2 & X X X "
};
